<?xml version="1.0" standalone="no"?>
<!DOCTYPE svg PUBLIC "-//W3C//DTD SVG 20010904//EN"
 "http://www.w3.org/TR/2001/REC-SVG-20010904/DTD/svg10.dtd">
<svg version="1.0" xmlns="http://www.w3.org/2000/svg"
 width="640.000000pt" height="640.000000pt" viewBox="0 0 640.000000 640.000000"
 preserveAspectRatio="xMidYMid meet">
<metadata>
Created by potrace 1.16, written by Peter Selinger 2001-2019
</metadata>
<g transform="translate(0.000000,640.000000) scale(0.100000,-0.100000)"
fill="#000000" stroke="none">
<path d="M3504 5863 c27 -124 42 -319 32 -414 l-7 -65 -42 40 c-247 238 -366
358 -372 376 -3 11 -11 20 -18 20 -6 0 -24 12 -39 27 -33 32 -35 21 -8 -48 12
-29 36 -113 55 -188 19 -75 46 -163 59 -196 14 -33 23 -61 22 -63 -2 -1 -20 7
-41 19 -33 20 -39 21 -49 7 -7 -10 -16 -12 -26 -7 -26 15 -193 77 -240 89 -48
12 -207 94 -277 142 -24 16 -50 43 -59 59 -8 17 -18 29 -20 26 -7 -7 34 -96
66 -144 35 -51 36 -55 13 -46 -10 4 -1 -9 19 -29 19 -20 42 -49 51 -65 8 -15
31 -57 51 -93 19 -36 36 -68 36 -73 0 -4 -17 4 -39 18 -50 34 -166 75 -212 75
-26 0 -56 13 -105 45 -37 25 -72 45 -76 45 -4 0 -8 -9 -8 -20 0 -11 4 -20 8
-20 5 0 15 -15 24 -32 8 -18 48 -76 87 -129 39 -53 71 -101 71 -106 0 -12 -82
-7 -155 9 -50 10 -230 92 -241 109 -8 13 -21 11 -27 -5 -3 -8 36 -57 98 -122
57 -60 102 -110 101 -111 -2 -2 -30 11 -64 27 -34 17 -74 30 -88 30 l-25 0 20
-26 c54 -68 95 -106 118 -109 13 -1 32 -11 41 -20 16 -18 16 -18 -10 -2 -31
19 -42 22 -33 7 20 -32 -180 57 -247 111 -34 27 -88 54 -88 44 0 -2 20 -46 44
-97 24 -52 79 -142 125 -202 56 -75 78 -112 69 -117 -9 -6 -9 -11 1 -23 25
-30 -38 -43 -246 -49 -196 -6 -253 -16 -203 -35 14 -6 77 -30 140 -55 63 -25
134 -51 158 -58 80 -23 47 -32 -110 -27 -84 2 -166 2 -181 -1 l-29 -6 29 -21
c16 -12 64 -36 106 -54 42 -17 90 -44 105 -58 16 -15 41 -33 55 -41 15 -8 27
-22 27 -32 0 -20 49 -81 50 -61 0 6 -4 12 -10 12 -5 0 -10 6 -10 13 0 6 19 -8
41 -33 22 -25 56 -62 76 -83 l36 -38 -1 -229 c-1 -223 0 -230 23 -272 27 -50
47 -164 38 -225 -4 -28 -2 -43 5 -43 33 0 44 -253 16 -386 -8 -42 -13 -78 -10
-81 2 -3 1 -16 -4 -28 -6 -15 -5 -25 1 -27 6 -2 6 -14 -1 -33 l-10 -30 -248
-2 c-234 -1 -251 -2 -317 -26 -38 -13 -91 -30 -117 -38 -53 -15 -56 -22 -37
-94 29 -117 40 -218 46 -427 5 -204 4 -228 -10 -228 -9 0 -28 -11 -43 -24
l-28 -23 23 -29 c18 -23 21 -35 15 -68 -9 -56 -93 -202 -146 -256 -25 -25 -57
-62 -72 -82 -23 -33 -137 -137 -421 -383 -144 -126 -178 -149 -300 -210 -117
-59 -120 -61 -123 -95 -3 -34 -7 -37 -64 -60 -62 -24 -200 -126 -211 -154 -4
-9 -27 -26 -52 -38 -41 -20 -46 -25 -40 -48 16 -61 17 -110 3 -110 -37 0 -48
-33 -48 -138 l0 -102 2860 0 2860 0 -35 69 c-19 38 -59 110 -90 160 -30 50
-85 147 -121 215 -47 88 -83 141 -122 180 -47 47 -56 63 -64 108 -6 29 -10 61
-9 71 0 9 2 32 3 50 3 46 -39 95 -140 165 -45 31 -93 62 -105 69 -13 7 -38 30
-56 53 -37 46 -79 69 -171 95 -90 24 -204 90 -259 149 l-24 25 23 73 c12 40
40 129 62 197 21 68 38 135 36 150 -3 30 -63 72 -196 141 -46 23 -97 54 -113
67 -20 17 -35 22 -50 18 -20 -7 -19 -4 7 41 15 26 23 44 16 40 -7 -4 -12 -3
-12 1 0 12 43 48 55 45 6 -1 21 17 33 39 13 23 19 38 13 35 -20 -13 -11 6 19
41 17 18 30 39 30 46 -1 7 -14 -4 -30 -23 -17 -19 -30 -31 -30 -27 0 14 43 67
54 67 6 0 20 18 30 40 17 36 69 81 105 92 11 3 10 7 -3 21 -16 16 -15 20 17
74 30 51 36 71 46 172 11 102 14 116 39 141 44 45 57 63 46 67 -6 2 0 45 18
113 27 109 121 321 201 458 20 34 34 68 31 75 -5 14 58 98 79 106 7 2 -8 -19
-32 -48 -24 -28 -41 -54 -39 -57 5 -5 79 79 116 133 12 17 20 38 16 46 -4 12
80 91 176 164 8 6 12 14 9 18 -4 3 -36 -19 -72 -49 -36 -31 -69 -56 -73 -56
-14 0 33 43 111 102 43 33 80 67 81 75 2 8 6 18 10 21 4 4 4 -1 1 -10 -9 -24
6 -23 28 2 22 24 19 28 -26 34 -27 4 -46 -3 -83 -27 -115 -75 -181 -115 -185
-112 -2 2 13 23 32 46 36 42 60 96 112 259 15 47 45 122 66 168 42 91 36 102
-27 49 -21 -18 -57 -46 -79 -62 -22 -16 -65 -52 -95 -81 -30 -29 -56 -51 -58
-49 -3 2 9 21 25 42 16 21 37 52 46 68 78 147 136 247 165 285 37 50 28 64
-25 36 -30 -16 -92 -76 -78 -76 5 0 -6 -16 -25 -35 -19 -19 -29 -35 -23 -35 6
0 29 20 52 45 22 24 41 42 41 40 0 -3 -22 -48 -50 -100 -27 -52 -50 -102 -50
-110 0 -8 -5 -14 -12 -13 -7 2 -19 -10 -28 -27 -44 -86 -84 -147 -121 -185
-28 -29 -35 -40 -21 -36 17 6 19 3 15 -13 -3 -11 -14 -27 -24 -37 -10 -9 -19
-22 -19 -27 0 -6 33 22 73 60 98 96 217 197 217 185 0 -6 -39 -47 -87 -93 -49
-45 -74 -72 -56 -60 17 11 70 62 117 112 47 51 86 89 86 85 0 -4 -14 -34 -30
-67 -17 -33 -28 -64 -25 -69 13 -22 -52 -195 -95 -250 -19 -25 -19 -25 -17 -2
1 12 5 22 10 22 9 0 77 142 77 162 0 14 -81 -125 -149 -254 -42 -80 -42 -97
-1 -53 29 31 169 119 177 111 3 -3 -11 -15 -31 -27 -20 -11 -36 -25 -36 -31 0
-5 14 1 31 13 l31 22 -12 -24 c-7 -13 -39 -52 -71 -86 -33 -34 -59 -66 -59
-71 0 -5 -33 -44 -73 -86 -67 -71 -78 -79 -132 -91 -46 -11 -61 -12 -67 -2 -5
8 -8 6 -8 -6 0 -14 -38 -41 -48 -32 -5 4 48 135 79 198 18 34 48 87 68 117 20
30 40 61 44 68 4 6 4 12 0 12 -11 0 -71 -92 -106 -162 -15 -32 -29 -58 -31
-58 -2 0 5 28 16 63 26 83 32 130 16 125 -16 -6 -208 -360 -208 -382 1 -6 12
12 27 39 29 57 163 298 170 305 8 9 -8 -51 -53 -198 -24 -79 -44 -145 -44
-146 0 -2 -21 -9 -47 -16 -27 -6 -81 -23 -121 -36 -40 -13 -83 -24 -96 -24
-22 0 -23 3 -21 68 1 37 7 83 13 102 6 19 23 73 38 120 15 47 40 110 55 140
15 30 30 71 34 90 5 28 0 23 -21 -25 -45 -103 -86 -208 -99 -255 -7 -25 -20
-62 -29 -83 -9 -22 -12 -36 -7 -32 16 9 13 -4 -4 -21 -8 -9 -15 -28 -15 -43 0
-69 -10 -88 -53 -101 -66 -19 -195 -38 -204 -29 -5 5 -35 11 -68 13 l-60 5 55
-10 c180 -32 -74 -52 -305 -24 -71 9 -146 18 -165 21 -19 2 -60 7 -90 10 -121
12 -194 39 -342 130 -79 48 -166 101 -195 118 -65 37 -62 46 4 12 38 -19 50
-21 50 -11 0 8 -22 22 -50 31 -32 11 -77 40 -130 86 -44 38 -89 76 -101 84
-13 10 -17 18 -9 21 18 7 -120 154 -170 180 -51 26 -40 6 20 -36 59 -41 103
-91 69 -78 -19 7 -115 72 -197 132 -75 55 -376 186 -424 184 -11 0 3 -9 32
-19 91 -32 221 -97 308 -154 47 -31 89 -56 94 -56 5 0 14 -7 21 -16 10 -12 1
-10 -41 6 -30 12 -59 26 -65 31 -23 19 -121 38 -150 29 -22 -6 -24 -9 -9 -9
12 -1 25 -5 30 -10 11 -9 141 -61 153 -61 4 1 -13 12 -38 25 -25 13 -39 24
-33 25 23 0 193 -80 193 -92 0 -3 -20 5 -46 19 -25 14 -48 23 -51 19 -3 -3 3
-9 13 -12 10 -4 56 -34 101 -66 48 -34 88 -56 94 -52 8 4 9 3 5 -5 -4 -7 5
-18 24 -29 18 -9 51 -31 73 -48 23 -17 74 -50 114 -74 40 -23 71 -46 68 -50
-2 -4 1 -7 8 -7 7 0 46 -20 87 -45 96 -58 198 -117 230 -134 38 -21 7 -16 -46
6 -26 11 -49 19 -51 17 -9 -10 30 -27 127 -57 58 -18 110 -35 115 -38 6 -4 24
-8 40 -9 64 -6 80 -8 85 -13 9 -9 73 -30 225 -75 83 -25 199 -60 260 -79 60
-19 111 -33 113 -32 3 4 -164 61 -278 95 -36 11 -110 36 -165 55 -55 20 -111
36 -124 36 -13 0 -22 3 -19 6 4 3 88 -4 188 -16 269 -31 388 -29 525 8 61 17
119 34 129 38 16 6 18 4 14 -14 -4 -12 -2 -22 3 -22 5 0 9 11 9 24 0 26 4 27
98 41 23 4 42 10 42 15 0 4 35 17 78 28 71 18 112 24 112 15 0 -11 -166 -108
-305 -180 -163 -84 -198 -117 -45 -42 88 43 322 180 353 207 21 18 21 12 2
-35 -15 -35 -20 -61 -10 -51 3 2 16 34 29 71 23 65 23 80 -2 55 -8 -8 -12 -9
-12 -1 0 6 17 17 38 23 20 7 41 16 46 21 13 11 36 -16 36 -43 0 -30 15 -52 29
-44 17 11 14 1 -29 -82 -64 -125 -110 -233 -110 -256 0 -12 -7 -46 -15 -74
-20 -66 -40 -70 -31 -6 3 28 2 43 -4 39 -6 -3 -10 -15 -10 -25 0 -39 -10 -49
-40 -40 -16 5 -40 16 -52 24 -12 9 -27 16 -33 16 -13 -1 37 -39 51 -40 6 0 22
-10 36 -23 25 -23 25 -41 2 -64 -7 -7 -10 -21 -8 -30 7 -25 -106 -91 -170 -99
l-47 -7 7 29 c7 27 6 28 -10 15 -16 -13 -17 -12 -11 15 5 22 4 25 -4 14 -9
-13 -11 -13 -11 3 0 9 8 17 18 18 14 0 13 2 -5 11 -12 6 -25 22 -29 37 l-7 26
-7 -25 c-4 -14 -13 -24 -20 -22 -8 2 -11 -4 -7 -18 7 -27 -2 -26 -108 11 -50
18 -101 31 -114 30 -19 -1 -21 2 -12 13 9 11 -2 14 -61 16 -40 1 -81 2 -90 2
-10 0 -88 -1 -174 -1 -86 -1 -155 -3 -153 -5 2 -2 59 -6 126 -9 120 -5 124 -6
190 -44 38 -21 86 -47 107 -58 22 -12 41 -25 42 -30 3 -11 -122 -75 -146 -76
-8 0 -3 -5 12 -11 22 -8 50 -2 143 27 64 21 114 39 112 41 -2 2 -39 -5 -82
-16 -43 -11 -80 -18 -83 -16 -7 7 68 36 94 36 13 0 46 9 74 20 49 19 51 19 83
1 19 -10 42 -21 51 -22 17 -4 31 -36 73 -161 9 -26 20 -45 25 -42 6 4 5 -3 -1
-14 -6 -11 -19 -23 -28 -25 -10 -2 -6 -3 10 -2 21 1 29 -4 33 -22 4 -13 10
-23 15 -23 5 0 6 8 3 18 -3 10 2 7 13 -8 10 -13 26 -33 36 -43 10 -10 16 -21
13 -25 -8 -12 -69 -40 -128 -58 -32 -9 -58 -21 -58 -26 0 -5 -15 -15 -34 -23
-36 -15 -52 -32 -41 -43 3 -3 10 0 15 8 7 11 10 12 10 2 0 -8 13 0 30 16 26
26 116 59 128 47 2 -1 -21 -38 -50 -81 -29 -44 -80 -124 -112 -179 -175 -296
-229 -385 -241 -395 -8 -6 -12 -17 -9 -25 3 -7 -9 -23 -28 -36 -26 -19 -30
-19 -18 -4 14 17 13 18 -5 11 -49 -19 -129 -36 -168 -35 -51 1 -119 37 -249
132 -51 37 -127 92 -168 122 -85 61 -144 99 -136 87 3 -5 47 -37 99 -73 52
-35 99 -71 105 -80 10 -15 -99 54 -187 118 -24 18 -48 30 -54 26 -5 -3 -7 -1
-4 4 8 12 -20 39 -29 30 -4 -3 -24 3 -45 14 -39 20 -54 37 -21 25 9 -4 4 5
-13 18 -36 30 -57 35 -24 5 32 -27 15 -21 -55 21 -82 50 -158 109 -151 120 3
5 1 11 -4 14 -5 4 -12 25 -16 49 -4 23 -20 93 -36 155 -16 62 -29 122 -29 133
0 10 -7 19 -15 19 -9 0 -15 9 -15 23 0 27 -21 77 -33 77 -7 0 -4 -20 10 -57 3
-7 1 -13 -5 -13 -5 0 -14 17 -19 37 -4 20 -14 38 -20 40 -7 3 -10 -4 -6 -19 4
-19 3 -20 -7 -8 -9 12 -10 8 -5 -18 6 -30 4 -34 -24 -45 -17 -6 -31 -17 -31
-23 0 -23 -37 -2 -129 72 -51 41 -98 74 -106 74 -21 0 -105 226 -140 380 -9
41 -23 89 -31 107 -8 17 -14 42 -13 55 0 17 4 13 14 -17 l14 -40 -5 46 c-5 36
-1 53 18 84 12 22 34 69 49 105 17 44 30 64 40 62 18 -3 45 41 35 57 -15 23
27 9 121 -40 121 -63 133 -73 133 -117 0 -19 5 -75 12 -124 9 -72 16 -94 36
-114 14 -13 32 -22 41 -19 9 2 27 -5 41 -16 l25 -21 -28 17 c-16 9 -31 14 -34
11 -3 -3 11 -15 31 -27 20 -12 41 -30 47 -40 5 -11 14 -17 20 -13 6 4 5 12 -3
22 -7 10 1 5 17 -10 17 -16 45 -38 62 -50 18 -13 78 -56 133 -95 56 -40 110
-78 121 -83 10 -6 19 -16 19 -23 0 -8 30 -17 83 -26 45 -7 96 -15 112 -18 17
-3 28 -3 25 0 -3 3 -47 14 -97 25 -91 19 -93 20 -230 122 -145 109 -193 151
-193 169 0 6 -5 11 -11 11 -6 0 -42 18 -80 40 -54 32 -68 45 -67 63 1 12 -6
47 -14 77 -9 30 -19 72 -23 94 -5 33 -4 38 9 33 24 -9 19 3 -10 25 -14 12 -30
31 -34 44 -6 15 -15 22 -25 18 -8 -3 -42 11 -77 34 -35 21 -83 49 -108 62 -37
19 -42 20 -30 5 14 -17 13 -17 -10 -10 -39 12 -44 11 -45 -5 0 -14 -50 -114
-74 -150 -8 -12 -13 -12 -30 4 -12 11 -21 25 -21 33 0 7 -6 13 -13 13 -15 0
-40 37 -32 50 3 4 -1 10 -7 12 -10 4 -12 37 -10 134 2 71 6 131 8 133 3 3 12
-3 21 -12 14 -14 17 -38 18 -142 0 -69 -3 -125 -7 -125 -17 0 5 -27 35 -44
l32 -18 -25 21 c-24 19 -25 23 -25 145 1 69 4 128 8 132 4 4 17 -2 30 -13 29
-25 241 -165 287 -188 19 -10 49 -28 65 -40 36 -26 225 -129 225 -122 0 3 -28
21 -62 40 -35 20 -79 51 -98 69 -19 18 -44 40 -55 48 l-20 15 20 -24 c23 -28
18 -25 -75 35 -36 23 -84 52 -107 65 -23 13 -79 52 -126 85 l-83 62 4 93 c5
113 -5 115 -13 4 -4 -44 -8 -81 -10 -83 -2 -2 -12 2 -23 9 -19 12 -21 23 -20
133 1 75 5 124 12 128 7 5 6 8 -4 9 -8 0 -24 2 -35 5 -11 2 -36 6 -55 9 -30 4
-28 2 13 -12 38 -13 47 -21 47 -40 0 -26 0 -26 -58 13 -38 26 -142 118 -142
126 0 3 19 2 41 -3 23 -6 44 -7 47 -4 11 11 -8 17 -62 20 -48 3 -63 9 -94 37
-20 18 -59 42 -87 52 -125 45 -124 46 65 40 116 -3 194 -10 233 -21 32 -9 60
-13 64 -9 7 7 -44 56 -59 56 -6 0 -9 2 -6 5 12 12 270 -108 382 -179 77 -48
200 -146 193 -153 -3 -2 -19 3 -36 12 -18 9 -31 11 -31 5 0 -6 11 -15 25 -20
37 -14 127 -73 233 -152 51 -39 95 -68 98 -66 2 3 -34 34 -82 69 -48 35 -111
95 -143 133 -31 38 -63 72 -71 74 -11 4 -10 -1 4 -17 11 -11 15 -21 10 -21 -5
0 -14 8 -20 18 -30 47 -308 214 -453 271 -26 11 -68 29 -92 40 -24 10 -60 22
-79 25 -19 2 -79 20 -132 39 l-97 34 82 6 c45 4 100 13 122 21 22 8 55 15 73
16 20 0 35 6 39 16 4 11 13 14 30 9 21 -5 23 -3 17 19 -4 17 0 27 13 35 10 6
13 11 6 11 -6 0 -15 -4 -18 -10 -3 -5 -10 -10 -15 -10 -13 0 -69 100 -64 114
2 6 -16 31 -41 55 -25 24 -45 48 -45 53 0 5 -4 7 -9 3 -10 -6 -51 58 -70 107
l-10 26 50 -26 c39 -21 45 -28 32 -34 -14 -5 -15 -7 -3 -7 9 -1 53 -17 100
-36 90 -39 224 -63 245 -45 27 22 127 -18 318 -129 49 -28 91 -51 94 -51 16 0
-58 45 -187 115 -123 66 -153 78 -197 80 -54 2 -88 20 -161 89 -18 17 -43 31
-54 31 -12 0 -23 7 -26 15 -5 13 -3 13 13 0 17 -14 18 -13 12 3 -6 15 -4 16
16 3 37 -24 155 -68 173 -64 11 2 1 13 -34 36 -55 35 -202 188 -202 210 0 7
16 0 39 -19 48 -38 153 -69 232 -69 31 0 72 -6 90 -14 19 -8 61 -17 94 -20 58
-6 59 -5 33 9 -15 9 -32 24 -38 35 -6 11 -16 20 -22 20 -9 0 -9 -3 0 -12 20
-20 13 -28 -13 -14 -28 14 -70 64 -62 72 3 3 13 -6 23 -20 9 -15 19 -25 21
-22 4 4 -83 123 -110 151 -15 15 3 -17 21 -38 8 -9 13 -20 10 -23 -8 -7 -78
85 -78 102 0 8 -4 14 -9 14 -5 0 -11 6 -14 13 -7 18 29 19 44 1 6 -8 19 -14
28 -14 10 0 27 -13 39 -29 11 -16 29 -28 39 -27 10 0 17 -4 16 -9 -1 -6 15
-22 35 -35 20 -13 80 -56 132 -95 52 -38 113 -83 135 -99 22 -16 34 -22 26
-13 -8 10 -9 17 -3 17 7 0 5 10 -4 28 -7 15 -14 33 -14 41 0 11 3 11 17 0 14
-12 14 -10 -1 14 -21 31 -28 35 -19 10 4 -10 2 -14 -4 -10 -6 4 -13 15 -16 26
-4 17 -2 18 25 9 16 -6 32 -8 35 -4 4 3 0 6 -8 6 -8 1 -31 31 -53 68 -21 37
-73 118 -115 180 -101 151 -114 172 -108 178 2 3 17 -9 33 -26 50 -53 162
-123 392 -243 122 -64 226 -117 230 -117 9 0 -96 64 -146 88 -188 94 -457 250
-447 260 2 2 41 -19 87 -46 132 -78 237 -125 282 -127 25 -1 68 -16 112 -38
39 -20 79 -37 89 -37 10 0 24 -8 31 -17 9 -12 13 -14 14 -5 0 15 20 6 20 -9 0
-6 -4 -7 -10 -4 -5 3 -10 1 -10 -6 0 -8 -4 -8 -15 1 -13 11 -13 9 -1 -21 8
-19 20 -33 27 -31 7 2 9 -4 5 -13 -3 -9 -2 -13 4 -10 5 3 14 -5 21 -17 12 -22
11 -22 -7 -8 -18 14 -18 14 -3 -10 9 -14 22 -35 30 -47 8 -13 18 -23 22 -23 5
0 -1 14 -13 31 -32 43 -17 47 16 4 15 -20 33 -34 39 -31 7 2 23 -2 34 -11 34
-23 38 -6 5 19 -39 30 -109 107 -110 122 -1 6 -3 27 -4 46 -1 27 -3 30 -9 16
-6 -15 -10 -11 -24 25 -22 57 -22 82 -1 54 13 -18 14 -17 8 15 -9 46 -69 242
-94 304 -11 27 -18 52 -15 54 5 5 70 -65 158 -172 82 -99 83 -100 92 -87 3 6
2 10 -4 9 -6 -2 -21 12 -33 31 -34 53 -7 34 95 -67 68 -67 96 -101 99 -122 6
-39 -11 -39 -18 0 -4 17 -10 30 -14 30 -13 0 -21 -32 -11 -44 25 -31 51 -90
51 -117 0 -18 4 -28 10 -24 14 8 13 78 -1 92 -8 8 -8 16 1 30 10 15 11 15 6 1
-3 -10 -1 -20 4 -23 6 -4 11 14 12 42 1 26 3 73 4 103 2 30 3 65 3 78 1 23 1
23 26 -5 13 -15 25 -23 25 -17 0 6 -6 17 -14 23 -9 8 -13 25 -11 49 4 33 4 34
-3 7 l-8 -30 -7 34 c-4 18 -7 54 -7 78 0 31 -4 43 -12 41 -16 -6 -23 -39 -10
-47 12 -7 19 -97 9 -107 -4 -4 -7 -50 -7 -102 0 -53 -3 -92 -6 -89 -4 3 -8
104 -9 224 -2 120 -6 232 -9 248 l-7 30 17 -22 c9 -13 23 -23 31 -23 12 0 13
-3 4 -14 -9 -11 -6 -27 11 -72 13 -35 24 -52 26 -42 2 10 -4 28 -12 40 -35 50
-11 83 29 41 24 -26 115 -198 115 -217 0 -5 -30 41 -67 102 -36 62 -71 112
-76 112 -5 0 0 -15 11 -32 11 -18 46 -76 76 -128 31 -52 56 -88 57 -80 0 8 5
4 11 -10 6 -14 31 -72 56 -129 29 -67 49 -132 57 -185 l13 -81 1 60 c2 55 3
58 16 41 20 -27 19 -11 -1 19 -9 14 -12 25 -8 25 5 0 8 102 6 226 -2 147 0
224 6 220 21 -13 80 -114 115 -198 39 -91 42 -103 28 -94 -10 7 3 -62 14 -72
4 -4 5 10 1 31 -11 57 -1 44 24 -33 12 -39 27 -73 33 -77 7 -4 8 0 2 13 -4 10
-23 61 -41 111 -50 141 -103 252 -146 306 -21 27 -37 59 -37 70 1 19 2 20 6 3
3 -10 12 -27 22 -37 28 -30 94 -149 150 -269 78 -170 85 -183 89 -172 2 6 -2
21 -8 32 -13 25 -4 42 10 20 7 -11 10 -11 10 -2 0 7 -7 15 -16 19 -8 3 -46 67
-85 142 -71 141 -167 303 -193 330 -20 19 -31 8 -17 -17 6 -12 11 -29 11 -39
-1 -17 -1 -17 -11 0 -5 9 -19 17 -31 17 -16 0 -19 -4 -14 -22 11 -37 67 -490
62 -496 -2 -2 -18 32 -36 75 -101 245 -135 323 -162 367 -26 44 -179 206 -194
206 -3 0 -3 -12 0 -27z m1080 -3025 c-19 -21 -19 -21 0 -14 18 6 18 2 12 -60
-7 -64 -55 -184 -75 -184 -8 0 -31 44 -31 61 0 5 -10 30 -21 55 -16 32 -24 42
-30 32 -7 -10 -9 -9 -9 4 0 9 -3 23 -6 32 -4 11 0 16 12 17 11 0 14 3 7 6 -7
2 -13 12 -13 21 0 13 2 14 9 4 7 -12 14 -11 40 2 32 17 99 43 115 45 5 0 1 -9
-10 -21z m-2256 -48 c17 -16 32 -34 32 -38 0 -5 10 -17 21 -28 12 -10 26 -30
31 -44 6 -14 12 -20 15 -13 2 7 -1 22 -7 33 -16 29 -6 36 24 17 29 -20 87 -80
81 -85 -2 -3 -16 9 -30 24 l-26 29 15 -32 c9 -18 16 -42 17 -55 l1 -23 7 24
c10 36 30 6 27 -41 -1 -21 2 -38 6 -38 5 0 8 16 8 35 0 19 5 35 10 35 6 0 10
-38 11 -92 1 -51 5 -106 9 -123 4 -16 5 26 2 94 -4 93 -2 122 6 117 8 -5 13
-46 14 -114 l2 -107 3 98 c2 53 8 97 13 97 4 0 12 -41 16 -90 9 -119 23 -126
16 -8 -6 117 13 113 23 -4 6 -70 13 -92 43 -142 20 -34 36 -74 37 -93 l1 -34
-18 23 c-10 13 -18 18 -18 12 0 -13 82 -165 87 -161 2 2 -7 28 -20 58 -33 76
-24 108 12 43 40 -72 55 -98 61 -104 3 -3 11 -16 18 -30 l12 -25 -6 25 c-3 14
-23 54 -44 90 -22 36 -42 74 -46 85 -5 11 -28 54 -52 95 -43 72 -45 79 -48
165 -3 84 -2 87 8 43 7 -28 17 -48 25 -48 16 0 29 -31 37 -86 l6 -39 -13 34
c-7 19 -19 37 -25 39 -14 4 -15 -3 -2 -26 5 -9 18 -37 29 -62 27 -60 73 -143
89 -163 8 -9 10 -22 6 -29 -5 -10 -4 -10 5 -2 10 9 10 18 -2 41 -10 19 -12 34
-6 44 5 8 9 9 9 3 0 -6 20 -24 46 -40 48 -30 162 -153 131 -141 -10 4 19 -30
65 -76 123 -122 198 -202 198 -210 0 -16 -269 137 -399 227 -40 28 -81 56 -90
61 -94 58 -166 111 -198 144 -30 33 -45 41 -73 41 -29 0 -37 6 -50 32 -10 22
-37 44 -89 73 -41 23 -100 65 -132 93 -32 29 -66 52 -76 52 -44 0 -40 37 12
120 5 8 10 26 11 40 1 14 11 48 21 77 l20 52 38 -39 c36 -37 65 -54 50 -30 -9
14 8 13 23 -2 6 -6 14 -9 18 -6 3 3 -10 21 -28 40 -40 40 -82 98 -71 98 4 0
23 -14 41 -30z"/>
<path d="M4476 5714 c-3 -9 -4 -20 -1 -25 4 -5 0 -6 -8 -3 -11 4 -13 -1 -10
-20 4 -19 1 -26 -10 -26 -8 0 -17 -13 -21 -31 -3 -18 -22 -63 -41 -102 -38
-76 -40 -81 -25 -72 6 3 7 -1 4 -9 -3 -9 -10 -13 -15 -10 -5 3 -9 1 -9 -3 0
-14 -100 -187 -114 -198 -14 -10 -31 -55 -22 -55 8 0 67 88 104 155 39 71 33
34 -8 -45 -52 -102 -75 -140 -83 -140 -4 0 -17 19 -27 43 l-20 42 4 -45 c3
-28 9 -44 16 -42 8 2 10 -3 7 -13 -9 -22 9 -18 33 7 27 30 100 175 140 281 18
48 35 86 37 84 4 -5 -51 -284 -73 -371 -8 -32 -13 -60 -11 -63 6 -6 63 231 86
362 26 143 78 294 94 269 3 -5 8 -40 11 -79 6 -68 5 -69 -9 -37 -17 37 -30 43
-21 10 16 -56 37 -237 47 -393 13 -214 13 -216 0 -224 -11 -7 -15 -42 -12
-116 2 -49 11 -35 35 55 10 36 27 85 38 110 12 25 22 56 24 70 4 37 62 251 70
259 3 3 3 -97 0 -224 -11 -393 -8 -370 -51 -457 -22 -45 -1 -32 25 15 13 23
26 44 29 47 8 7 93 120 105 138 6 11 5 13 -4 7 -8 -5 -11 -3 -8 6 3 8 10 14
16 14 5 0 14 4 19 9 5 5 3 6 -4 2 -19 -10 -16 2 9 42 12 20 24 30 26 23 4 -13
31 15 32 33 0 6 -7 1 -15 -10 -21 -27 -18 -10 5 36 39 76 54 61 51 -49 -5
-162 -72 -414 -118 -444 -15 -9 -17 -27 -5 -27 10 0 34 25 126 129 36 41 66
79 66 84 0 6 -16 -11 -36 -37 -20 -26 -38 -45 -41 -42 -3 3 9 23 26 45 17 21
46 70 64 108 l32 68 3 -70 c3 -77 -8 -133 -40 -201 -32 -69 -31 -47 2 47 31
89 36 119 20 119 -5 0 -10 -3 -11 -7 -4 -46 -13 -85 -40 -164 -38 -115 -49
-137 -76 -152 -12 -7 -41 -28 -65 -47 l-43 -35 27 35 c39 53 91 150 80 150 -5
0 -15 -14 -23 -31 -7 -18 -41 -75 -76 -127 -64 -95 -64 -95 -23 -61 137 116
130 111 126 74 -2 -13 1 -22 5 -19 5 3 9 10 9 17 0 18 114 121 118 107 5 -13
82 57 82 74 0 6 14 25 32 43 18 18 27 33 21 33 -6 0 -16 -7 -23 -15 -7 -8 -15
-15 -19 -15 -3 0 -39 -32 -80 -71 -40 -38 -75 -68 -77 -66 -3 2 11 33 30 68
53 99 69 168 63 267 -5 90 -20 123 -31 75 -10 -40 -83 -182 -112 -218 -20 -26
-24 -27 -24 -10 0 11 5 38 10 60 14 62 60 366 60 397 0 34 -26 38 -35 6 -4
-13 -16 -30 -26 -38 -10 -8 -38 -49 -62 -90 -101 -173 -149 -245 -143 -215 21
110 14 633 -8 628 -6 -1 -11 -8 -12 -15 -17 -109 -89 -347 -112 -370 -5 -5
-12 59 -16 154 -21 496 -27 558 -55 558 -5 0 -12 -7 -15 -16z"/>
<path d="M2855 5328 c39 -15 191 -116 275 -181 150 -119 347 -303 342 -321 -2
-6 -1 -8 3 -5 12 13 199 -196 230 -255 17 -32 37 -63 46 -69 13 -8 14 -18 8
-51 -9 -46 -11 -92 -5 -85 9 9 26 136 31 224 4 98 0 90 -10 -17 -5 -54 -9 -66
-22 -61 -11 4 -11 8 -3 13 8 5 5 12 -10 23 -12 8 -19 20 -16 26 4 5 1 13 -7
18 -20 13 -71 99 -132 226 -31 65 -59 117 -61 114 -3 -3 18 -50 45 -106 28
-55 51 -104 51 -107 0 -4 -85 77 -189 178 -231 226 -496 432 -572 443 l-34 5
30 -12z"/>
<path d="M3010 4259 c0 -4 11 -32 25 -63 14 -31 25 -59 25 -61 0 -2 -12 0 -26
6 -50 18 -35 1 29 -35 89 -49 122 -78 362 -314 115 -114 204 -199 197 -190
-10 12 -11 22 -3 35 8 14 11 15 12 3 1 -8 1 -18 0 -22 0 -5 2 -8 7 -8 7 0 25
-37 37 -78 6 -21 4 -22 -22 -16 -15 3 -47 12 -71 20 -23 8 -49 14 -56 14 -7 0
-94 22 -193 49 -101 28 -191 48 -204 45 -19 -5 -21 -4 -9 5 8 6 11 11 5 11 -5
0 -21 3 -35 5 -22 5 -23 4 -5 -5 16 -8 14 -9 -14 -5 -19 3 -33 3 -30 1 11 -10
88 -43 84 -36 -6 10 34 25 42 16 4 -3 0 -6 -8 -7 -60 -3 480 -136 628 -155 29
-4 51 -9 49 -13 -2 -3 33 -6 77 -7 45 0 75 1 67 3 -8 2 -73 13 -144 26 -87 15
-132 27 -137 37 -4 8 -19 40 -33 70 -14 30 -44 87 -66 125 -22 39 -41 75 -43
80 -3 6 -7 7 -11 3 -4 -3 3 -23 16 -45 44 -69 41 -69 -29 5 -38 39 -75 72 -82
72 -7 0 2 -12 21 -27 40 -33 48 -44 42 -55 -3 -5 -1 -7 4 -6 14 5 102 -90 88
-95 -7 -3 -93 76 -192 175 -98 99 -215 206 -258 239 -44 33 -81 65 -82 72 -5
28 -63 144 -64 126z"/>
<path d="M2433 3488 c-76 -86 -110 -167 -108 -253 1 -40 41 -176 75 -250 9
-22 21 -51 25 -65 13 -42 37 -71 53 -65 13 5 96 -31 126 -56 64 -52 78 -61 83
-55 3 3 -6 16 -20 29 -30 25 -36 42 -12 33 20 -7 19 0 -7 34 l-22 30 25 26
c23 25 23 26 5 39 -10 8 -16 20 -13 27 2 7 -16 52 -40 100 -41 80 -44 91 -34
119 15 45 14 125 -4 158 -8 16 -11 32 -7 35 3 4 -17 29 -46 55 -31 28 -48 51
-41 53 13 4 4 28 -10 28 -4 0 -17 -10 -28 -22z m26 -37 c11 -7 9 -10 -7 -15
-16 -5 -27 -27 -46 -89 -14 -45 -24 -83 -22 -85 2 -1 16 34 32 79 15 45 34 83
41 86 30 12 32 -5 5 -42 -34 -47 -65 -135 -60 -167 4 -21 5 -20 12 7 8 32 22
68 50 127 12 24 25 36 37 35 25 -2 24 -18 -3 -47 -22 -23 -58 -102 -58 -127 0
-6 13 -20 30 -29 24 -15 28 -23 24 -43 -5 -24 -4 -25 9 -8 27 33 49 18 24 -17
-12 -17 -15 -17 -55 -1 -37 15 -41 20 -36 44 l6 26 -16 -29 c-9 -16 -15 -30
-14 -31 2 -1 18 -7 35 -14 28 -11 31 -16 22 -33 -6 -11 -8 -22 -6 -25 3 -2 8
5 12 16 3 12 10 21 14 21 11 0 51 -48 51 -62 0 -7 23 -36 51 -64 47 -47 50
-53 37 -73 -9 -15 -19 -20 -33 -16 -11 3 -41 8 -67 12 -71 9 -88 34 -74 113
l6 35 -14 -30 -14 -30 -13 28 c-11 24 -11 32 1 50 11 19 11 20 -1 10 -22 -18
-42 19 -34 60 4 23 3 28 -4 17 -8 -12 -11 -11 -16 5 -4 11 -11 28 -16 38 -13
23 -4 63 28 134 18 38 22 57 14 62 -7 5 -2 19 15 44 26 39 31 42 53 28z"/>
<path d="M2962 3393 c4 -20 190 -120 296 -159 40 -15 71 -28 70 -30 -2 -1 -46
10 -98 26 -392 119 -464 142 -491 156 -17 8 -33 13 -36 10 -9 -9 69 -39 287
-109 308 -99 470 -147 520 -153 43 -6 147 -35 200 -56 13 -5 56 -11 95 -14
l70 -4 -60 14 c-33 8 -85 23 -115 34 -30 11 -62 20 -70 19 -26 -1 -220 63
-349 115 -122 48 -246 111 -286 143 -23 19 -16 17 84 -24 77 -33 96 -37 86
-21 -7 12 2 12 30 0 19 -8 19 -9 1 -9 -11 -1 -17 -3 -14 -6 3 -3 20 -2 39 2
l34 7 -44 13 c-24 7 -48 10 -52 7 -5 -3 -45 8 -89 25 -91 35 -113 38 -108 14z"/>
<path d="M3756 3346 c26 -18 78 -32 191 -50 71 -12 131 -31 260 -86 93 -40
183 -81 200 -92 18 -10 37 -17 42 -14 5 4 11 2 13 -2 5 -15 80 -23 75 -9 -4
13 20 38 78 83 69 52 34 44 -44 -10 -74 -52 -81 -55 -110 -45 -32 11 -39 23
-19 35 7 4 8 3 4 -4 -4 -7 -2 -12 3 -12 6 0 11 4 11 9 0 5 21 17 48 27 54 20
106 53 97 62 -3 4 -10 0 -14 -7 -5 -8 -14 -10 -21 -6 -9 5 -11 4 -6 -3 4 -8
-3 -16 -19 -22 -34 -13 -55 -13 -35 0 8 5 11 10 5 10 -5 0 -17 -5 -25 -10 -13
-9 -13 -10 0 -11 10 0 8 -3 -5 -9 -28 -12 -37 -12 -30 0 3 6 2 10 -3 10 -6 0
-13 -8 -16 -17 -4 -10 -10 -13 -14 -8 -4 6 -20 11 -37 13 -16 1 -41 4 -55 6
-14 1 -31 4 -38 4 -7 1 -11 6 -8 11 4 5 -4 7 -16 5 -13 -2 -17 -1 -9 2 8 4
-19 18 -65 34 -44 15 -101 37 -128 49 -26 13 -69 24 -95 26 -89 7 -141 16
-182 30 -52 19 -59 19 -33 1z"/>
<path d="M4170 2195 c-41 -7 -103 -15 -137 -16 -42 -2 -64 -8 -68 -17 -3 -8
-12 -11 -21 -8 -20 8 -166 -54 -161 -68 5 -13 19 -12 102 4 33 6 105 18 160
26 161 23 180 28 180 44 0 9 13 17 34 20 43 6 55 31 14 29 -15 -1 -62 -7 -103
-14z"/>
</g>
</svg>
