<?xml version="1.0" standalone="no"?>
<!DOCTYPE svg PUBLIC "-//W3C//DTD SVG 20010904//EN"
 "http://www.w3.org/TR/2001/REC-SVG-20010904/DTD/svg10.dtd">
<svg version="1.0" xmlns="http://www.w3.org/2000/svg"
 width="736.000000pt" height="736.000000pt" viewBox="0 0 736.000000 736.000000"
 preserveAspectRatio="xMidYMid meet">

<g transform="translate(0.000000,736.000000) scale(0.100000,-0.100000)"
fill="currentColor" stroke="none">
<path d="M3363 6211 c-108 -37 -157 -67 -224 -137 -91 -96 -304 -427 -387
-600 -19 -40 -34 -56 -75 -78 -29 -16 -67 -40 -86 -54 l-34 -25 -26 29 c-118
131 -362 278 -586 353 -96 32 -276 67 -299 58 -8 -3 -22 -39 -31 -83 -15 -67
-16 -90 -6 -183 25 -223 49 -324 137 -576 89 -257 199 -459 313 -573 27 -26
28 -33 35 -157 13 -245 53 -422 130 -578 l43 -88 -51 -92 c-28 -51 -59 -103
-68 -117 -17 -23 -17 -25 0 -45 10 -11 25 -31 34 -45 14 -23 14 -27 -10 -63
l-25 -38 21 -22 c12 -13 22 -27 22 -32 0 -4 -17 -35 -39 -69 -21 -34 -50 -85
-65 -114 -21 -42 -35 -56 -67 -69 l-41 -16 7 -45 c9 -60 22 -92 37 -92 7 0 32
17 55 38 30 28 43 49 48 78 4 21 21 62 38 89 24 41 173 247 208 289 5 6 26 33
46 60 l37 48 23 -28 c52 -67 207 -194 253 -209 28 -9 25 -18 -16 -40 -68 -36
-224 -237 -224 -288 0 -11 20 11 49 55 27 40 67 90 88 110 49 47 146 105 198
119 22 6 49 13 60 16 19 5 19 5 3 -13 -23 -26 -58 -104 -57 -129 0 -11 16 10
36 48 20 38 48 76 62 85 14 9 29 20 32 25 8 11 28 -67 35 -141 l6 -58 -98 -46
c-68 -31 -119 -48 -162 -53 -68 -8 -92 -23 -92 -60 0 -13 -3 -25 -7 -27 -21
-9 -93 -215 -93 -265 0 -17 -10 -29 -32 -41 -35 -19 -52 -35 -119 -113 -26
-30 -67 -65 -93 -79 -45 -24 -46 -24 -61 -5 -9 11 -29 47 -47 80 -67 130 -112
161 -170 115 -39 -30 -44 -122 -13 -244 l8 -29 -49 33 c-27 19 -71 54 -99 78
-87 78 -78 75 -201 52 -60 -11 -122 -25 -138 -30 -25 -8 -37 -5 -77 20 -58 35
-178 127 -229 174 -56 52 -140 103 -196 119 -42 12 -56 13 -88 2 -21 -8 -43
-18 -48 -23 -12 -12 52 -86 91 -107 33 -17 151 -132 216 -210 28 -33 72 -80
100 -105 27 -25 87 -82 133 -126 80 -78 84 -85 103 -155 16 -61 18 -93 13
-179 -3 -58 -10 -119 -15 -136 -10 -31 -3 -60 23 -96 10 -14 9 -22 -9 -45 -55
-70 -164 -263 -197 -345 -8 -21 -49 -90 -91 -154 -94 -143 -97 -157 -88 -460
6 -202 5 -213 -14 -240 -18 -25 -53 -98 -53 -110 0 -2 9 -4 20 -4 14 0 22 11
31 40 16 52 30 52 25 0 -4 -41 3 -50 22 -27 12 14 53 170 82 307 11 52 26 118
33 145 l14 50 7 -90 c9 -114 35 -359 43 -396 3 -16 9 -29 14 -29 11 0 11 48
-1 130 -17 122 -30 275 -31 383 l-2 108 48 104 c70 153 85 144 140 -81 15 -60
31 -113 36 -119 14 -15 11 5 -26 176 -41 190 -44 234 -13 266 12 13 17 23 12
23 -28 0 -110 -126 -150 -230 -10 -25 -27 -57 -40 -72 -12 -15 -32 -66 -44
-113 -13 -47 -25 -84 -27 -81 -2 2 5 54 17 116 23 128 24 148 11 135 -13 -13
-56 -228 -78 -389 -15 -112 -18 -125 -26 -95 -5 18 -7 117 -5 219 4 209 -3
187 103 350 38 58 75 104 91 112 28 13 104 98 88 98 -5 0 -28 -19 -52 -41 -24
-23 -45 -39 -48 -36 -8 8 79 169 140 261 l57 85 44 -32 c24 -18 44 -35 44 -40
1 -4 -24 -55 -54 -114 -31 -58 -54 -107 -52 -109 2 -2 19 12 38 32 19 19 26
32 16 29 -25 -10 -21 -1 19 52 20 27 41 58 47 70 9 21 11 21 71 -25 34 -26
112 -78 173 -117 67 -42 112 -77 113 -86 0 -9 7 -34 16 -55 13 -31 14 -45 5
-76 -7 -21 -18 -38 -26 -38 -9 0 -12 6 -8 18 6 15 3 14 -17 -3 -30 -27 -110
-131 -110 -144 0 -19 16 -12 28 12 6 12 11 17 11 11 1 -15 -38 -64 -50 -64 -5
0 -9 10 -9 23 0 22 29 68 108 166 23 29 40 56 38 59 -9 8 -36 -19 -93 -96 -39
-51 -58 -70 -64 -61 -6 11 -9 10 -13 -1 -2 -8 -4 -22 -4 -30 0 -8 -4 -26 -8
-39 -5 -17 -4 -22 4 -17 7 4 15 0 18 -9 5 -11 -7 -31 -35 -59 -29 -29 -46 -57
-52 -85 -9 -40 -96 -191 -110 -191 -4 0 -9 17 -12 38 -9 54 -49 172 -59 172
-10 0 -13 12 27 -120 l34 -115 -27 -38 c-48 -68 -141 -212 -141 -219 -1 -5 7
-8 17 -8 15 0 113 135 152 210 25 48 20 3 -9 -86 -16 -49 -32 -97 -36 -106 -7
-17 6 -18 175 -18 l182 0 28 29 29 28 6 -28 c4 -17 13 -29 22 -29 13 0 15 9 9
57 -6 62 7 55 18 -9 6 -35 21 -56 32 -45 2 2 -10 60 -27 128 -28 110 -32 144
-36 305 -5 170 -3 189 22 303 26 115 28 158 9 205 -5 13 -4 17 3 13 13 -8 43
2 43 14 0 5 -4 9 -10 9 -8 0 -59 31 -140 87 -14 10 -72 48 -130 86 -58 38
-123 86 -145 107 -22 20 -69 64 -105 98 -59 55 -63 62 -53 84 33 65 74 171 78
200 5 28 0 24 -26 -27 l-31 -60 7 48 c11 79 54 234 82 293 54 115 90 115 248
1 39 -28 93 -70 121 -94 l52 -43 7 -82 c4 -50 15 -99 27 -122 23 -46 12 -65
-21 -35 -25 23 -41 19 -21 -6 10 -13 9 -15 -9 -15 -21 0 -22 3 -15 59 6 55 5
60 -24 92 -17 19 -34 30 -39 26 -4 -5 1 -16 12 -25 32 -26 35 -46 20 -128 -8
-41 -15 -78 -15 -80 0 -6 -67 -5 -85 2 -9 4 -21 18 -26 32 -8 20 -6 29 11 44
20 19 26 38 13 38 -5 0 -19 -12 -33 -28 -14 -15 -21 -22 -17 -15 10 13 -38 62
-60 63 -20 0 -15 -18 7 -32 11 -7 20 -16 20 -20 0 -4 -25 -19 -55 -33 -68 -32
-64 -47 7 -29 41 11 54 11 60 1 6 -9 10 -9 18 3 8 12 10 11 10 -6 0 -18 11
-25 64 -39 72 -20 96 -16 96 15 0 13 7 20 20 20 69 0 121 59 87 98 -9 10 -18
48 -22 97 -10 109 -22 134 -96 190 -74 56 -60 54 37 -5 37 -22 74 -39 83 -37
12 3 9 7 -10 16 -24 12 -49 59 -49 92 0 9 -8 33 -19 55 -29 61 -52 182 -49
258 3 59 6 70 24 77 12 4 31 2 45 -4 31 -16 103 -151 134 -254 36 -116 80
-195 187 -335 169 -222 179 -242 198 -403 13 -102 -3 -594 -20 -655 -6 -19
-26 -132 -45 -250 -19 -118 -46 -257 -59 -307 -22 -85 -22 -93 -7 -93 14 0 24
28 50 141 19 77 42 197 51 267 10 70 18 121 19 113 2 -21 -29 -463 -34 -493
l-4 -28 103 0 104 0 10 63 c6 34 16 107 22 162 6 55 18 129 27 164 8 36 18
121 21 190 l7 126 42 -150 c34 -121 45 -178 54 -295 8 -97 8 -160 2 -190 l-10
-45 -16 35 c-8 19 -25 57 -36 84 -12 27 -24 46 -28 43 -10 -10 68 -187 83
-187 14 0 27 41 42 125 l8 50 14 -87 c9 -60 17 -88 27 -88 18 0 17 2 -17 170
-46 226 -240 923 -255 918 -12 -4 -8 -32 16 -127 13 -50 20 -115 21 -200 1
-71 3 -95 5 -56 2 39 6 81 10 95 13 50 19 -51 11 -209 -5 -109 -12 -159 -22
-170 -7 -9 -19 -61 -25 -116 -13 -111 -38 -266 -44 -272 -2 -2 -9 25 -15 59
-43 252 -53 328 -67 527 -14 191 -15 260 -5 460 6 130 14 239 17 244 2 4 2 30
-2 57 -8 61 -67 154 -207 326 -32 39 -58 74 -58 78 0 3 12 25 27 49 15 23 41
66 59 95 l33 53 5 -43 c3 -24 11 -95 17 -158 25 -250 34 -117 14 205 -3 50 3
28 19 -75 43 -268 71 -390 88 -390 12 0 12 -5 -27 205 -62 330 -70 395 -64
510 5 105 45 305 60 305 4 0 10 -14 14 -30 6 -27 34 -69 124 -190 95 -126 178
-314 317 -724 94 -275 143 -456 305 -1131 30 -128 71 -365 79 -462 0 -2 5 -3
10 -3 6 0 10 25 10 55 l0 55 38 0 c48 0 176 -16 272 -33 52 -10 89 -24 123
-46 26 -18 53 -31 59 -29 7 3 -6 17 -30 33 -23 15 -42 31 -42 35 0 4 -10 12
-22 17 -23 11 -23 11 5 18 30 8 36 32 11 42 -20 7 -34 45 -27 72 4 17 10 20
32 15 32 -8 61 -32 61 -51 0 -9 7 -12 18 -9 10 3 40 -9 71 -28 l54 -34 -43 -7
c-88 -15 -138 -50 -90 -62 11 -3 20 -9 20 -14 0 -11 40 -32 47 -25 4 3 -2 15
-12 26 -10 11 -16 22 -14 24 2 2 33 15 69 29 58 22 69 23 106 12 22 -6 58 -24
80 -38 46 -32 75 -37 53 -10 -8 9 -34 29 -58 45 -25 15 -38 28 -29 28 8 0 34
14 57 30 31 23 48 29 64 24 12 -5 30 -7 39 -5 9 1 35 -15 58 -35 45 -41 65
-39 33 4 l-20 27 25 40 c34 54 142 159 181 176 34 15 39 46 6 41 -11 -2 -17
-1 -13 3 4 4 -25 32 -65 63 -40 30 -75 59 -78 64 -3 6 -9 9 -13 9 -28 -4 -32
1 -29 32 7 56 12 62 29 41 14 -17 15 -17 10 -1 -3 11 -2 16 4 12 6 -3 10 -14
10 -24 0 -10 10 -25 23 -34 12 -8 34 -25 48 -38 14 -13 41 -35 58 -48 29 -20
36 -22 57 -10 32 17 30 26 -11 50 -25 15 -35 28 -35 45 0 13 4 24 10 24 15 0
50 33 44 42 -7 11 -44 10 -44 -2 0 -5 -8 -10 -18 -10 -10 0 -23 -5 -29 -11 -8
-8 -17 -7 -34 2 -13 7 -28 12 -32 11 -5 -1 -18 9 -30 24 -19 25 -21 26 -34 8
-11 -16 -13 -12 -13 29 0 47 12 60 28 32 13 -24 56 -3 70 32 24 66 25 63 -28
63 -36 0 -52 -5 -59 -17 -9 -16 -10 -14 -11 8 0 26 2 27 68 31 60 3 72 7 105
37 53 49 47 92 -16 103 -49 9 -71 -35 -47 -96 15 -39 3 -31 -17 11 -14 28 -26
39 -48 43 -33 6 -32 1 -27 119 l2 50 29 -10 c16 -6 42 -9 58 -7 22 2 28 8 28
28 0 14 7 28 18 32 36 15 11 75 -44 103 -16 9 -31 15 -34 15 -63 -2 -74 11
-23 29 18 6 42 21 55 33 20 19 23 19 23 5 0 -10 16 -58 35 -108 30 -75 60
-185 39 -141 -3 7 -14 17 -25 22 -15 8 -17 7 -13 -5 4 -8 1 -15 -5 -15 -6 0
-11 -9 -11 -19 0 -10 -7 -21 -15 -25 -39 -15 4 -32 53 -21 14 4 22 13 22 27 0
30 15 12 30 -35 9 -29 9 -42 1 -50 -14 -14 -14 -47 0 -47 6 0 9 7 6 15 -4 8
-2 17 3 20 6 4 15 -6 20 -20 17 -44 13 -51 -27 -47 -30 3 -45 -3 -72 -26 l-35
-29 27 -17 c36 -24 106 -33 108 -15 3 20 6 42 9 59 4 25 19 -62 19 -110 -1
-41 -1 -43 -10 -18 -14 36 -53 36 -44 -1 9 -36 54 -67 56 -38 1 6 5 -8 10 -33
9 -47 3 -92 -10 -71 -5 8 -13 7 -27 -4 -19 -15 -19 -15 4 -34 38 -33 26 -75
-33 -111 -19 -12 -33 -26 -30 -31 6 -9 12 -7 73 26 19 9 37 13 42 9 13 -15 40
-120 40 -157 0 -30 -11 -47 -71 -111 -69 -74 -112 -107 -156 -121 -30 -8 -30
11 0 36 18 15 19 18 5 19 -9 0 -32 -15 -50 -34 -19 -19 -54 -46 -78 -60 l-45
-26 34 0 c37 0 160 34 204 56 15 8 55 44 90 80 l62 65 1 -53 c2 -155 0 -148
39 -148 19 0 35 2 35 4 0 23 -45 368 -59 461 -69 429 -105 593 -152 705 -10
25 -61 158 -112 295 -131 348 -210 550 -262 666 l-44 99 27 14 c15 8 40 28 56
45 29 30 56 41 56 22 0 -7 -71 -71 -109 -98 -2 -2 -1 -6 2 -10 4 -3 34 15 67
40 l60 47 63 -98 c67 -102 136 -218 206 -342 23 -41 63 -108 87 -149 75 -122
182 -403 210 -551 58 -301 95 -549 90 -605 -11 -118 -36 -321 -49 -395 l-13
-75 -12 85 c-14 94 -30 159 -31 124 -1 -23 26 -225 35 -261 4 -13 14 -23 24
-23 25 0 35 50 65 324 14 121 29 245 34 275 6 31 13 110 16 176 12 242 58 761
71 806 8 28 42 35 128 26 44 -4 106 -6 136 -3 84 8 100 1 100 -43 0 -25 -6
-40 -20 -49 -14 -9 -20 -23 -20 -50 0 -20 -7 -64 -15 -97 -20 -84 -19 -115 10
-191 14 -37 28 -92 31 -123 9 -90 12 -98 39 -103 29 -6 69 24 83 63 6 14 9 92
8 175 -3 138 -5 155 -34 238 -29 81 -31 93 -20 130 6 23 12 42 13 43 0 1 27
-5 58 -13 32 -8 62 -12 67 -9 12 7 13 1 10 -100 -2 -44 -3 -105 -2 -135 0 -56
30 -158 63 -214 10 -17 19 -52 21 -78 2 -26 7 -51 11 -54 11 -11 47 27 47 49
0 11 7 25 15 31 13 9 16 33 16 113 1 154 -9 205 -58 310 -24 52 -41 98 -39
102 3 5 36 8 74 8 37 0 78 3 90 7 l22 7 0 -225 c0 -124 -4 -256 -10 -293 -5
-38 -19 -173 -30 -301 -11 -128 -36 -344 -55 -480 -47 -343 -45 -322 -19 -322
18 0 23 6 26 33 l3 32 18 -32 c10 -18 22 -33 27 -33 16 0 12 15 -16 55 l-26
38 15 91 c9 50 24 158 33 239 18 145 19 147 36 125 19 -25 19 -31 -6 -93 -9
-22 -10 -32 -3 -21 6 10 19 28 28 39 l16 20 5 -21 c4 -13 -8 -43 -32 -84 -21
-35 -41 -74 -44 -88 -4 -14 12 8 36 47 24 40 45 73 48 73 3 0 13 -28 23 -63
10 -34 35 -98 54 -142 20 -44 42 -95 50 -114 8 -18 16 -31 18 -29 3 2 -11 42
-30 89 -50 123 -97 255 -89 246 5 -4 53 -96 109 -205 83 -163 105 -198 124
-200 13 -2 22 0 20 5 -27 61 -290 542 -321 586 -19 26 -20 34 -9 120 24 196
36 412 36 654 0 237 1 253 19 266 18 13 19 24 13 198 -4 101 -11 211 -17 244
-6 33 -17 105 -25 160 -8 55 -25 149 -36 208 l-21 109 22 23 c17 18 20 30 15
58 -4 21 -3 37 4 41 25 16 41 64 31 91 -7 20 -6 32 6 50 15 23 15 27 -6 60
l-21 35 55 220 c64 251 86 374 86 477 0 97 -19 120 -116 139 -38 7 -94 13
-125 14 -65 0 -111 15 -227 72 l-84 41 -135 -12 c-75 -7 -152 -19 -172 -27
-25 -11 -52 -14 -87 -9 -50 6 -53 5 -75 -27 -24 -32 -24 -37 -24 -268 0 -245
11 -495 24 -567 5 -23 15 -53 24 -66 16 -25 13 -111 -5 -134 -5 -6 -8 -39 -7
-73 2 -50 -2 -66 -21 -92 -20 -27 -27 -61 -48 -240 -14 -114 -28 -208 -31
-207 -4 0 -28 27 -54 60 -29 35 -59 62 -75 65 -66 16 -214 103 -299 175 -32
27 -105 55 -223 84 -107 27 -274 91 -308 118 -10 8 -3 20 32 56 50 52 241 332
285 420 31 60 61 183 61 248 l0 38 20 -25 c16 -20 19 -34 15 -70 -11 -81 -35
-148 -70 -194 -19 -25 -30 -46 -23 -46 22 0 95 87 134 159 45 83 48 82 84 -30
18 -56 22 -84 17 -138 -7 -88 -25 -129 -84 -193 -26 -28 -40 -48 -30 -45 9 4
25 10 34 14 27 11 -56 -59 -124 -105 -34 -23 -72 -42 -85 -42 -13 0 -30 -5
-38 -11 -27 -19 130 -1 206 24 73 24 158 78 194 124 11 14 20 22 20 17 0 -13
-67 -122 -101 -165 -59 -74 -35 -66 95 32 108 81 111 82 89 22 -3 -7 0 -13 5
-13 12 0 62 99 86 171 43 130 45 268 5 371 -20 54 -24 58 -73 74 -65 21 -142
59 -183 91 -29 21 -33 30 -33 71 l0 47 71 -73 c56 -56 70 -67 67 -48 l-5 24
38 -25 c59 -39 78 -25 22 17 -36 26 -57 53 -84 108 -60 121 -71 195 -64 433 4
112 2 235 -3 273 l-9 70 29 -35 c49 -58 127 -226 144 -314 16 -79 15 -267 -2
-322 -4 -15 -2 -23 5 -23 20 0 60 101 73 186 15 92 15 372 0 488 -11 86 -30
119 -163 286 -33 41 -84 111 -114 155 -29 44 -68 100 -87 125 l-33 45 53 -30
c168 -96 395 -296 482 -424 23 -35 58 -97 77 -137 18 -41 35 -74 38 -74 7 0
-31 102 -63 170 -41 84 -175 265 -266 358 -82 84 -191 158 -309 208 -45 19
-90 42 -99 51 -10 9 -18 12 -19 7 0 -5 -11 32 -24 81 -25 100 -75 227 -109
277 -21 31 -25 33 -90 36 -157 7 -427 -65 -553 -147 l-48 -31 35 30 c32 28 71
49 140 77 24 10 24 11 -27 40 -29 16 -86 40 -128 53 -71 22 -75 25 -75 53 0
16 -13 69 -30 119 -28 82 -30 100 -30 228 0 147 -17 267 -47 329 -15 30 -24
36 -53 38 -19 1 -72 -11 -117 -26z m-39 -126 c-6 -32 -13 -39 -51 -56 -25 -10
-48 -19 -52 -19 -4 0 -5 19 -2 43 6 40 8 43 56 59 28 9 51 15 53 13 2 -2 0
-20 -4 -40z m196 -48 c0 -5 -4 -5 -10 -2 -5 3 -10 14 -10 23 0 15 2 15 10 2 5
-8 10 -19 10 -23z m-87 -19 c12 -10 17 -31 18 -85 l2 -72 -52 -57 c-62 -68
-100 -99 -109 -90 -3 4 -5 26 -4 49 2 48 3 50 -33 -68 -16 -49 -34 -99 -41
-110 -16 -23 -18 -35 -5 -35 5 0 13 9 16 21 14 42 51 87 95 115 25 15 65 48
89 73 l43 46 -7 -63 c-5 -43 -3 -67 5 -77 18 -21 5 -33 -45 -41 -64 -9 -55
-24 14 -24 65 0 66 -1 75 -45 l6 -30 -222 -1 c-123 0 -245 -6 -273 -12 -27 -5
-51 -9 -53 -7 -2 1 21 46 50 99 44 80 54 92 60 75 11 -29 25 -15 20 20 -7 52
56 150 142 220 41 34 85 66 98 71 12 6 34 17 48 25 31 18 42 18 63 3z m-340
-158 c-3 -11 -12 -20 -20 -20 -8 0 -12 3 -10 8 2 4 7 15 10 25 9 24 27 12 20
-13z m437 -23 c-1 -41 -21 -83 -33 -70 -10 10 -8 68 3 98 14 37 30 22 30 -28z
m-534 -173 c-4 -13 -20 -39 -37 -59 -36 -41 -65 -47 -55 -12 3 12 6 31 6 41 0
11 19 37 43 60 40 38 42 39 45 17 2 -13 1 -34 -2 -47z m-1101 6 c3 -6 -1 -7
-9 -4 -18 7 -21 14 -7 14 6 0 13 -4 16 -10z m-12 -41 c26 -14 67 -50 67 -59 0
-4 -19 -10 -42 -14 -39 -6 -45 -4 -70 25 -15 17 -28 35 -28 39 0 22 38 27 73
9z m-21 -113 c20 -19 128 -161 128 -168 0 -7 -116 29 -168 53 -42 19 -43 20
-38 60 2 22 6 42 8 43 9 8 44 25 50 26 4 0 13 -6 20 -14z m123 -36 c89 -35
164 -77 265 -146 80 -55 170 -131 170 -143 0 -4 -14 -26 -31 -50 l-32 -42 -21
20 c-12 12 -28 21 -34 21 -19 0 -14 -25 8 -45 20 -18 20 -19 1 -39 -10 -12
-36 -48 -56 -81 -21 -33 -39 -61 -39 -62 -4 -6 -171 49 -177 58 -4 6 -12 8
-19 4 -10 -6 -9 -10 4 -17 28 -16 17 -38 -30 -58 -25 -11 -49 -20 -53 -20 -9
0 -26 35 -47 93 l-14 39 30 -7 c33 -7 39 1 15 19 -14 10 -11 17 21 54 35 41
38 43 78 36 22 -3 50 -11 61 -17 17 -9 18 -8 8 5 -13 16 -67 44 -204 106 -94
43 -99 51 -99 143 0 39 7 48 26 29 6 -6 51 -22 101 -35 49 -14 120 -39 157
-55 93 -42 104 -33 20 17 -54 32 -83 59 -132 122 -34 45 -59 81 -57 81 2 0 38
-13 80 -30z m-265 -48 c0 -20 -4 -31 -10 -27 -5 3 -10 25 -10 48 0 31 3 38 10
27 5 -8 10 -30 10 -48z m616 -9 c28 -37 56 -102 48 -115 -11 -18 -75 37 -94
80 -34 77 -4 100 46 35z m901 -229 c34 -10 38 -12 13 -9 -19 3 -61 8 -92 12
l-56 6 -55 -52 c-31 -29 -70 -81 -91 -119 -41 -77 -49 -68 -10 11 15 28 54 80
87 115 l61 63 47 -6 c26 -4 69 -13 96 -21z m-1324 -23 c31 -7 57 -15 57 -19
-1 -15 -99 -102 -104 -93 -6 9 -46 129 -46 138 0 2 8 0 18 -5 9 -5 43 -14 75
-21z m-105 -31 c31 -41 42 -75 48 -141 5 -52 3 -59 -17 -70 -27 -14 -38 -2
-77 80 -25 53 -25 54 -8 107 9 30 20 54 25 54 4 0 17 -13 29 -30z m752 6 c0
-2 -7 -7 -16 -10 -8 -3 -12 -2 -9 4 6 10 25 14 25 6z m-70 -37 c-19 -12 -43
-28 -52 -37 -10 -8 -18 -12 -18 -9 0 10 81 67 94 67 6 0 -5 -10 -24 -21z
m1820 11 c8 -5 11 -10 5 -10 -5 0 -17 5 -25 10 -8 5 -10 10 -5 10 6 0 17 -5
25 -10z m-1900 -63 c0 -2 -10 -12 -22 -23 l-23 -19 19 23 c18 21 26 27 26 19z
m1325 -133 c17 -14 21 -21 10 -15 -11 6 -33 22 -50 37 -16 14 -21 21 -10 15
11 -6 34 -22 50 -37z m-822 21 c-3 -9 -8 -14 -10 -11 -3 3 -2 9 2 15 9 16 15
13 8 -4z m1629 -127 c2 -43 0 -78 -4 -78 -5 0 -7 44 -7 98 2 107 6 99 11 -20z
m-2379 85 c32 -6 32 -7 -2 -88 -11 -27 -30 -83 -41 -122 l-22 -73 -35 43 c-55
65 -79 108 -86 152 -6 38 -4 42 26 60 47 29 89 44 112 39 11 -3 33 -7 48 -11z
m1170 -18 c-3 -9 -8 -14 -10 -11 -3 3 -2 9 2 15 9 16 15 13 8 -4z m-452 -22
c-12 -20 -14 -14 -5 12 4 9 9 14 11 11 3 -2 0 -13 -6 -23z m-252 -31 c-6 -18
-15 -32 -20 -32 -5 0 -1 16 8 35 20 42 27 40 12 -3z m688 -39 c-2 -16 -4 -5
-4 22 0 28 2 40 4 28 2 -13 2 -35 0 -50z m990 -82 c70 -106 107 -200 130 -325
17 -96 15 -118 -9 -98 -40 32 -258 66 -273 42 -4 -6 11 -10 37 -10 57 0 176
-32 226 -60 38 -22 40 -25 47 -86 3 -34 3 -83 0 -107 l-7 -45 -64 -4 c-62 -3
-64 -2 -42 14 91 66 80 86 -12 22 -35 -24 -74 -44 -86 -44 -40 0 -106 -60
-126 -115 -10 -28 -15 -57 -13 -66 3 -10 1 -47 -5 -84 -10 -61 -9 -69 10 -96
12 -16 25 -29 30 -29 5 0 14 18 20 41 11 40 12 40 31 23 11 -9 17 -25 14 -34
-3 -11 1 -16 15 -17 28 -2 25 17 -11 60 -32 39 -49 47 -49 22 0 -23 -22 -65
-31 -59 -5 3 -9 31 -9 63 0 70 33 128 93 161 32 19 43 20 63 11 50 -22 72
-133 34 -171 -11 -11 -20 -32 -20 -47 -1 -35 -33 -60 -91 -68 -47 -7 -56 -11
-46 -21 9 -10 148 7 141 17 -3 5 6 23 20 40 51 60 58 165 16 237 -12 19 -19
37 -16 39 7 8 90 -32 105 -51 20 -24 8 -117 -23 -173 -14 -25 -26 -52 -26 -59
0 -17 20 -19 20 -1 1 15 50 76 50 61 0 -6 -9 -23 -21 -38 -29 -36 -6 -33 25 4
34 41 48 95 36 145 -12 52 -12 61 -1 50 5 -6 18 -71 30 -145 55 -366 35 -481
-127 -720 -179 -265 -211 -294 -334 -310 -66 -8 -88 -6 -155 11 -274 71 -420
126 -560 210 -46 28 -87 48 -91 44 -4 -3 0 -10 8 -15 8 -5 39 -27 69 -49 64
-48 276 -155 311 -157 32 -1 151 -33 170 -46 10 -6 8 -7 -10 -2 -22 6 -23 5
-11 -10 12 -14 6 -13 -34 4 -26 11 -50 19 -52 17 -2 -3 15 -12 38 -21 44 -18
120 -66 104 -66 -21 1 -165 77 -157 84 4 4 3 7 -3 6 -22 -5 -36 1 -29 12 4 6
3 8 -3 5 -6 -4 -30 0 -53 8 -57 20 -60 19 -25 -10 42 -35 185 -113 248 -135
52 -18 52 -19 17 -20 -29 -1 -32 -3 -15 -10 11 -5 37 -9 58 -9 44 -1 47 -20 5
-35 -20 -7 -36 -1 -92 34 -37 23 -69 40 -72 37 -8 -7 87 -76 105 -77 8 0 11
-6 7 -16 -4 -12 -2 -15 9 -10 8 3 28 1 43 -5 27 -11 27 -11 5 -20 -35 -13 -27
-21 12 -13 27 5 35 3 35 -9 0 -8 -7 -17 -15 -21 -22 -8 -19 -28 3 -22 16 6 20
-4 30 -79 7 -55 8 -105 2 -142 -5 -32 -14 -92 -20 -133 -11 -77 -34 -165 -48
-188 -14 -21 -35 -5 -97 69 -57 68 -161 163 -340 309 -88 71 -90 74 -102 132
-6 32 -25 83 -41 112 l-29 53 85 -23 c46 -13 98 -32 115 -44 87 -55 217 -100
217 -74 0 5 -15 19 -34 32 -18 12 -44 34 -57 49 l-24 26 36 -26 c53 -40 85
-35 34 5 -39 30 -90 147 -120 273 -2 6 -70 51 -153 100 l-151 90 -7 55 c-3 30
-10 73 -14 95 -5 22 -8 40 -7 41 1 1 42 -22 91 -52 49 -30 93 -54 98 -54 20 0
3 23 -65 84 -70 62 -153 164 -169 205 -5 15 8 11 65 -21 40 -23 95 -52 122
-64 28 -13 79 -42 114 -64 57 -35 91 -49 91 -36 0 2 -39 31 -87 64 -109 75
-141 108 -187 197 l-37 70 33 -38 c18 -20 42 -37 52 -37 20 0 20 0 0 15 -16
12 -17 14 -2 15 33 0 49 -11 37 -26 -6 -8 -10 -14 -8 -15 41 -8 55 -7 68 5 9
8 32 19 51 24 19 6 61 20 93 32 32 12 79 26 105 30 44 9 43 9 -19 6 l-67 -4
15 37 c32 75 -2 214 -63 258 l-26 19 61 19 61 18 50 -27 c68 -37 85 -28 35 19
l-40 38 32 -6 c20 -4 43 -1 62 9 17 9 31 16 31 18 0 1 -34 2 -76 3 -42 1 -98
7 -125 14 -56 15 -113 4 -207 -37 -48 -21 -140 -88 -167 -121 -8 -10 -18 -10
-47 -1 l-36 11 52 48 c35 31 62 68 79 106 29 65 67 200 67 237 0 63 172 164
314 185 40 6 63 31 28 31 -58 0 -177 -42 -245 -87 -39 -26 -74 -49 -77 -50 -3
-2 -5 90 -4 205 l1 207 24 13 c25 13 147 11 182 -3 27 -11 20 10 -15 51 l-33
37 80 -7 c44 -4 91 -10 104 -13 31 -8 24 17 -10 35 -40 22 115 5 169 -18 59
-27 70 -25 42 5 l-24 25 31 -15 c17 -9 34 -23 38 -33 5 -14 9 -11 21 16 15 38
64 100 64 83 0 -18 21 -12 39 11 14 16 33 23 87 27 39 4 75 3 82 -3 7 -5 38
-48 69 -95z m-1450 77 c-3 -8 -6 -5 -6 6 -1 11 2 17 5 13 3 -3 4 -12 1 -19z
m-277 -22 c0 -2 -8 -10 -17 -17 -16 -13 -17 -12 -4 4 13 16 21 21 21 13z
m-582 -65 c45 -56 62 -93 62 -135 0 -25 -4 -48 -10 -51 -5 -3 -32 13 -60 37
l-50 43 0 68 c0 66 1 68 22 61 13 -4 29 -14 36 -23z m839 7 c-3 -8 -6 -5 -6 6
-1 11 2 17 5 13 3 -3 4 -12 1 -19z m-13 -77 c-4 -28 -9 -50 -11 -47 -3 3 -2
28 2 56 4 28 9 49 12 47 2 -3 1 -28 -3 -56z m1854 -37 c-4 -3 -12 5 -18 18
-12 22 -12 22 6 6 10 -10 15 -20 12 -24z m-2258 3 c0 -2 -10 -12 -22 -23 l-23
-19 19 23 c18 21 26 27 26 19z m387 -79 c-2 -13 -4 -5 -4 17 -1 22 1 32 4 23
2 -10 2 -28 0 -40z m-410 10 c-3 -8 -6 -5 -6 6 -1 11 2 17 5 13 3 -3 4 -12 1
-19z m400 -110 c-2 -13 -4 -3 -4 22 0 25 2 35 4 23 2 -13 2 -33 0 -45z m-390
10 c-3 -7 -5 -2 -5 12 0 14 2 19 5 13 2 -7 2 -19 0 -25z m-238 -222 c7 -27 10
-50 8 -53 -11 -10 -37 135 -36 199 l2 73 7 -85 c4 -47 13 -107 19 -134z m248
162 c-3 -7 -5 -2 -5 12 0 14 2 19 5 13 2 -7 2 -19 0 -25z m10 -85 c-3 -10 -5
-4 -5 12 0 17 2 24 5 18 2 -7 2 -21 0 -30z m650 15 c-3 -8 -6 -5 -6 6 -1 11 2
17 5 13 3 -3 4 -12 1 -19z m-70 -80 c-2 -13 -4 -3 -4 22 0 25 2 35 4 23 2 -13
2 -33 0 -45z m-559 -63 c-1 -31 -16 35 -16 70 0 25 2 24 9 -10 4 -22 8 -49 7
-60z m619 63 c-3 -7 -5 -2 -5 12 0 14 2 19 5 13 2 -7 2 -19 0 -25z m223 -52
c0 -28 -7 -52 -19 -67 -19 -24 -19 -23 -3 44 9 37 17 67 19 67 2 0 3 -20 3
-44z m-273 -68 c-2 -13 -4 -3 -4 22 0 25 2 35 4 23 2 -13 2 -33 0 -45z m-813
-23 c4 -20 3 -25 -3 -15 -5 8 -11 31 -15 50 -7 41 7 13 18 -35z m264 -10 c0
-16 -2 -15 -8 5 -4 14 -8 34 -8 45 0 16 2 15 8 -5 4 -14 8 -34 8 -45z m589 23
c-3 -7 -5 -2 -5 12 0 14 2 19 5 13 2 -7 2 -19 0 -25z m213 -94 c-20 -121 -47
-185 -91 -222 l-39 -33 0 31 c0 17 9 49 20 71 12 22 34 74 50 116 27 69 57
119 67 109 2 -2 -1 -35 -7 -72z m-789 -27 c-8 -8 -11 2 -10 34 l1 44 10 -34
c6 -23 6 -37 -1 -44z m-202 -72 c0 -5 -13 15 -29 45 -16 30 -29 60 -29 65 0 6
13 -15 29 -45 16 -30 29 -59 29 -65z m771 61 c0 -26 -6 -18 -14 19 -5 22 -4
26 4 15 5 -8 10 -24 10 -34z m1437 22 c-3 -8 -6 -5 -6 6 -1 11 2 17 5 13 3 -3
4 -12 1 -19z m-2020 -185 c-3 -10 -5 -4 -5 12 0 17 2 24 5 18 2 -7 2 -21 0
-30z m3312 9 c73 -45 159 -74 247 -82 128 -13 193 -29 205 -51 21 -41 -38
-377 -122 -691 -20 -77 -21 -90 -9 -113 11 -20 11 -28 1 -38 -10 -9 -12 -9
-10 3 4 22 -11 61 -22 55 -5 -4 -17 -1 -26 4 -16 9 -15 10 6 8 13 -1 26 3 28
10 7 19 -58 53 -102 53 -22 0 -66 4 -99 10 -89 14 -199 15 -204 1 -3 -9 -7 -9
-17 -1 -17 14 -146 -2 -253 -30 -40 -11 -76 -20 -80 -20 -21 0 -33 91 -47 346
-8 153 -15 328 -15 388 0 133 7 145 79 138 30 -3 57 1 72 9 26 15 116 25 243
27 71 2 84 -1 125 -26z m-3322 -64 c-3 -8 -6 -5 -6 6 -1 11 2 17 5 13 3 -3 4
-12 1 -19z m2010 -10 c-3 -8 -6 -5 -6 6 -1 11 2 17 5 13 3 -3 4 -12 1 -19z
m-936 -46 c35 -35 57 -107 49 -154 -15 -84 -73 -128 -166 -128 -35 0 -41 4
-51 31 -10 25 -9 33 5 48 21 22 52 75 52 90 0 19 -20 12 -20 -6 -1 -14 -4 -13
-14 6 -9 16 -15 20 -21 12 -4 -7 1 -21 11 -32 9 -10 12 -19 7 -19 -6 0 -13 7
-17 15 -8 21 -26 19 -26 -3 0 -26 -11 -34 -27 -20 -12 10 -13 7 -8 -18 5 -22
4 -25 -4 -14 -6 8 -11 38 -11 66 0 57 8 68 100 129 64 42 99 41 141 -3z m-353
0 c7 -5 10 -16 6 -25 -7 -18 -24 -23 -24 -8 0 5 -3 16 -6 25 -7 17 3 20 24 8z
m-741 -44 c-3 -8 -6 -5 -6 6 -1 11 2 17 5 13 3 -3 4 -12 1 -19z m843 -185 c20
-33 13 -35 -22 -5 -19 16 -34 94 -22 114 6 9 11 -2 16 -31 4 -24 16 -59 28
-78z m-810 77 c-6 -11 -13 -20 -16 -20 -2 0 0 9 6 20 6 11 13 20 16 20 2 0 0
-9 -6 -20z m900 -19 c0 -5 -7 -14 -15 -21 -16 -14 -18 -10 -9 14 6 17 24 22
24 7z m-743 -127 c19 -39 59 -100 88 -136 l54 -65 -55 5 c-36 3 -54 1 -54 -7
0 -7 23 -11 61 -11 58 0 64 -2 124 -50 34 -27 74 -54 89 -59 40 -16 31 -28
-21 -29 -27 0 -67 -1 -91 -1 -25 -1 -60 7 -85 20 -58 29 -155 100 -194 141
-29 30 -73 135 -73 173 0 9 24 43 52 76 50 57 53 58 62 37 4 -13 24 -55 43
-94z m703 66 c6 -11 8 -20 6 -20 -3 0 -10 9 -16 20 -6 11 -8 20 -6 20 3 0 10
-9 16 -20z m-1070 -79 c0 -32 -14 -49 -25 -31 -9 15 3 60 15 60 6 0 10 -13 10
-29z m49 -22 c-14 -27 -19 -24 -19 12 0 27 2 30 15 19 11 -9 12 -17 4 -31z
m2476 -99 l4 -75 -9 67 c-4 37 -11 82 -14 100 -6 31 -5 31 5 8 6 -14 12 -59
14 -100z m-2452 5 c-24 -30 -29 -32 -37 -18 -6 11 -6 18 1 20 6 2 19 10 29 18
33 25 36 16 7 -20z m-46 -101 c7 -20 -11 -38 -31 -31 -9 4 -12 13 -9 26 6 25
31 28 40 5z m645 -59 c9 -17 9 -18 -3 -8 -8 6 -22 26 -32 45 l-19 33 21 -25
c12 -14 27 -34 33 -45z m198 -115 c0 -5 -2 -10 -4 -10 -3 0 -8 5 -11 10 -3 6
-1 10 4 10 6 0 11 -4 11 -10z m2550 -40 c0 -5 -4 -10 -10 -10 -5 0 -10 5 -10
10 0 6 5 10 10 10 6 0 10 -4 10 -10z m67 4 c-3 -3 -12 -4 -19 -1 -8 3 -5 6 6
6 11 1 17 -2 13 -5z m-122 -11 c-32 -5 -50 -23 -33 -34 5 -4 -2 -6 -16 -6 -15
0 -29 3 -32 8 -3 5 2 9 10 9 9 0 16 4 16 8 0 5 -15 7 -32 6 l-33 -3 30 8 c17
5 50 8 75 8 31 0 36 -1 15 -4z m168 0 c-7 -2 -19 -2 -25 0 -7 3 -2 5 12 5 14
0 19 -2 13 -5z m117 -17 c0 -8 6 -17 13 -19 19 -8 -45 -6 -78 3 -29 7 -29 8
10 10 39 2 39 3 10 10 -30 8 -30 8 8 9 26 1 37 -3 37 -13z m86 5 c-3 -5 1 -12
10 -15 9 -3 14 -13 11 -20 -3 -8 -2 -17 4 -20 5 -2 4 -3 -3 -2 -7 2 -12 10
-10 20 2 9 -2 17 -8 17 -5 1 -14 3 -20 4 -5 1 -22 4 -37 5 -26 2 -26 3 7 10
51 11 52 11 46 1z m-521 -8 c-11 -3 -25 -10 -32 -15 -8 -6 -18 -6 -30 2 -16
10 -16 11 5 7 12 -3 22 -1 22 4 0 5 12 8 28 8 20 -1 22 -2 7 -6z m155 -8 c0
-8 -5 -15 -11 -15 -5 0 -8 4 -5 9 4 5 0 12 -6 14 -8 3 -6 6 5 6 9 1 17 -6 17
-14z m40 5 c0 -5 -4 -10 -9 -10 -6 0 -13 5 -16 10 -3 6 1 10 9 10 9 0 16 -4
16 -10z m-155 -8 l-20 -5 20 -8 c18 -8 17 -9 -5 -7 -14 0 -32 -2 -40 -5 -8 -3
-43 -10 -77 -15 -50 -7 -63 -6 -67 5 -3 8 -1 11 4 8 6 -3 10 -1 10 4 0 8 18 9
53 5 40 -5 61 -2 83 9 16 9 36 16 44 15 8 0 6 -3 -5 -6z m272 2 c-3 -3 -12 -4
-19 -1 -8 3 -5 6 6 6 11 1 17 -2 13 -5z m-102 -14 c-3 -5 -16 -10 -28 -9 -20
1 -20 2 3 9 14 4 26 8 28 9 2 1 0 -3 -3 -9z m273 -15 c-3 -3 -9 2 -12 12 -6
14 -5 15 5 6 7 -7 10 -15 7 -18z m32 5 c0 -5 -5 -10 -11 -10 -5 0 -7 5 -4 10
3 6 8 10 11 10 2 0 4 -4 4 -10z m85 -20 c3 -5 1 -10 -4 -10 -6 0 -11 5 -11 10
0 6 2 10 4 10 3 0 8 -4 11 -10z m-485 -10 c-10 -6 -11 -10 -2 -10 6 0 12 -5
12 -12 0 -9 -3 -9 -12 0 -15 15 -58 16 -58 1 0 -6 7 -8 16 -5 8 3 25 -3 37
-15 20 -19 20 -21 2 -11 -14 6 -52 5 -120 -4 -147 -20 -155 -19 -155 11 0 16
6 25 16 25 8 0 13 -4 10 -9 -3 -5 1 -14 8 -20 12 -10 13 -8 9 10 -6 21 -4 22
39 16 25 -3 49 -2 54 3 5 5 38 13 74 18 89 13 87 13 70 2z m283 -4 c-18 -7
-29 -17 -28 -26 2 -12 -8 -14 -59 -10 l-61 4 58 6 c59 5 76 20 35 31 -13 3 1
6 31 5 51 0 52 -1 24 -10z m72 -18 c5 -4 0 -6 -12 -6 -13 1 -19 7 -16 15 3 8
8 10 12 6 3 -4 10 -11 16 -15z m42 6 c-3 -3 -12 -4 -19 -1 -8 3 -5 6 6 6 11 1
17 -2 13 -5z m38 -14 c3 -5 2 -10 -4 -10 -5 0 -13 5 -16 10 -3 6 -2 10 4 10 5
0 13 -4 16 -10z m-86 -16 c10 -9 -55 -3 -69 6 -10 6 -2 7 25 3 22 -3 42 -7 44
-9z m147 -22 c-3 -2 -14 -1 -25 3 -17 5 -18 9 -8 20 10 12 14 11 24 -2 7 -9
11 -18 9 -21z m-111 8 c3 -5 1 -10 -4 -10 -6 0 -11 5 -11 10 0 6 2 10 4 10 3
0 8 -4 11 -10z m-405 -20 c-24 -15 -36 -11 -14 4 10 8 21 12 24 10 2 -3 -2 -9
-10 -14z m462 -2 c-9 -9 -42 -1 -42 12 0 4 12 5 26 2 15 -3 22 -8 16 -14z
m-263 -5 c-7 -8 -16 -10 -23 -4 -6 4 -18 11 -26 14 -8 3 2 5 22 4 31 0 36 -3
27 -14z m-175 -8 c-4 -8 -12 -15 -20 -15 -20 0 -17 18 4 23 9 3 18 5 19 6 1 0
0 -6 -3 -14z m269 8 c-13 -2 -35 -2 -50 0 -16 2 -5 4 22 4 28 0 40 -2 28 -4z
m55 -10 c-5 -7 -14 -10 -19 -7 -16 10 -9 23 10 21 15 -1 17 -4 9 -14z m-418
-3 c-14 -4 -32 -8 -40 -9 -13 -1 -13 0 0 9 8 5 26 9 40 9 l25 -1 -25 -8z m591
-53 c-13 -26 -18 -51 -14 -66 5 -18 3 -22 -6 -16 -9 5 -11 23 -6 63 5 41 3 57
-7 64 -9 7 -5 8 15 5 15 -2 27 0 28 7 0 7 3 6 6 -2 2 -6 -5 -31 -16 -55z
m-3139 28 c-2 -14 -11 -25 -19 -25 -9 0 -37 -12 -64 -27 -39 -21 -53 -24 -71
-16 -21 10 -20 11 20 22 42 12 107 44 127 62 13 12 13 12 7 -16z m2392 8 c-9
-7 -21 -10 -25 -7 -10 5 -12 -9 -4 -18 3 -2 31 -1 62 4 32 5 73 9 91 8 43 -1
74 9 67 21 -4 5 -1 9 4 9 6 0 11 -5 11 -11 0 -7 11 -9 28 -6 36 7 113 -3 106
-14 -3 -5 -9 -7 -13 -4 -5 2 -71 0 -147 -5 -139 -10 -169 -14 -204 -25 -13 -4
-19 1 -22 18 -7 35 0 44 32 43 26 -1 28 -3 14 -13z m83 6 c-14 -8 -22 -8 -30
0 -8 8 -3 11 19 11 25 -1 27 -2 11 -11z m390 5 c-3 -3 -12 -4 -19 -1 -8 3 -5
6 6 6 11 1 17 -2 13 -5z m189 -3 c-3 -5 3 -11 14 -14 11 -3 20 -10 20 -17 0
-6 -8 -9 -17 -6 -10 3 -33 7 -50 8 -38 3 -45 18 -9 18 14 0 28 5 31 10 3 6 8
10 11 10 3 0 3 -4 0 -9z m-3966 -36 c0 -5 -5 -3 -10 5 -5 8 -10 20 -10 25 0 6
5 3 10 -5 5 -8 10 -19 10 -25z m3753 8 c-7 -2 -19 -2 -25 0 -7 3 -2 5 12 5 14
0 19 -2 13 -5z m-2527 -83 c32 -36 43 -52 24 -35 -44 37 -78 74 -92 100 -6 11
-6 16 -1 10 5 -5 36 -39 69 -75z m-259 54 c2 -5 -6 -10 -18 -11 -11 -1 -40
-11 -65 -23 -24 -12 -50 -20 -56 -17 -7 3 1 10 18 16 16 6 46 20 65 30 36 20
51 21 56 5z m688 -29 c44 -24 76 -45 72 -45 -10 0 -167 80 -167 86 0 10 20 1
95 -41z m1986 22 c-10 -9 -11 -8 -5 6 3 10 9 15 12 12 3 -3 0 -11 -7 -18z
m-21 -12 c0 -8 -4 -15 -10 -15 -5 0 -10 7 -10 15 0 8 5 15 10 15 6 0 10 -7 10
-15z m108 8 c-10 -2 -26 -2 -35 0 -10 3 -2 5 17 5 19 0 27 -2 18 -5z m202 3
c0 -2 -7 -7 -16 -10 -8 -3 -12 -2 -9 4 6 10 25 14 25 6z m-2105 -16 c8 -13 -5
-13 -25 0 -13 8 -13 10 2 10 9 0 20 -4 23 -10z m1755 -9 c-12 -23 4 -39 23
-23 8 7 16 6 24 -3 10 -11 -11 -14 -115 -19 -70 -4 -149 -9 -176 -13 -43 -5
-47 -4 -35 10 10 11 16 12 22 3 6 -7 10 -7 13 -1 2 6 34 9 75 8 38 -2 68 0 66
5 -3 4 14 5 38 4 36 -3 43 -1 48 17 4 17 1 21 -18 21 -13 0 -26 -6 -28 -12 -4
-10 -8 -10 -14 -2 -4 7 -17 14 -28 17 -11 2 11 5 48 6 64 1 67 0 57 -18z m197
13 c-3 -3 -12 -4 -19 -1 -8 3 -5 6 6 6 11 1 17 -2 13 -5z m203 -14 c0 -11 -7
-20 -15 -20 -8 0 -15 5 -15 11 0 5 5 7 10 4 6 -3 10 1 10 9 0 9 2 16 5 16 3 0
5 -9 5 -20z m-700 -12 c0 -19 2 -20 10 -8 8 13 10 12 10 -2 0 -11 -7 -18 -18
-18 -25 0 -31 7 -25 31 7 26 23 24 23 -3z m83 15 c-7 -2 -21 -2 -30 0 -10 3
-4 5 12 5 17 0 24 -2 18 -5z m64 1 c-3 -3 -12 -4 -19 -1 -8 3 -5 6 6 6 11 1
17 -2 13 -5z m-2735 -31 c18 -16 39 -34 46 -41 8 -6 18 -9 24 -6 6 4 8 2 4 -4
-3 -6 13 -23 38 -39 52 -33 55 -56 11 -86 -60 -41 -74 -67 -49 -88 13 -10 17
-10 25 2 5 8 9 10 9 6 0 -4 6 -3 13 2 100 83 147 125 147 133 0 21 44 -18 149
-133 64 -70 110 -127 107 -135 -3 -7 -1 -16 4 -19 6 -4 10 0 10 7 0 8 5 7 17
-4 13 -14 14 -20 4 -31 -9 -12 -7 -19 15 -36 15 -12 31 -21 37 -21 12 0 107
-101 107 -115 0 -6 -14 -19 -31 -29 -23 -14 -41 -16 -74 -11 -42 6 -45 5 -51
-19 -4 -16 -13 -26 -25 -26 -10 0 -22 -6 -26 -13 -4 -7 -28 -28 -53 -47 -25
-19 -54 -43 -64 -52 -11 -10 -23 -18 -28 -18 -18 0 -6 -18 16 -24 18 -4 25
-14 28 -42 2 -19 1 -37 -4 -40 -16 -10 -47 17 -53 48 -4 18 -12 39 -17 48 -21
33 -145 365 -138 368 5 2 -7 20 -26 40 -19 20 -34 41 -34 46 0 6 -9 19 -19 30
-11 12 -44 59 -75 105 -44 65 -56 92 -55 120 l1 36 11 -33 c8 -26 14 -31 31
-27 15 5 17 4 7 -3 -7 -5 -9 -12 -5 -14 5 -3 18 4 29 15 11 11 14 17 8 13 -8
-4 -13 -1 -13 7 0 13 -15 27 -73 69 -19 14 -41 88 -27 88 5 0 23 -12 42 -27z
m249 8 c-13 -10 -21 -23 -17 -30 9 -13 -23 -15 -44 -1 -17 11 -16 12 35 33 52
21 55 20 26 -2z m145 -53 c78 -82 137 -152 179 -216 51 -78 38 -70 -175 97
-14 11 -44 34 -68 51 -32 23 -42 36 -37 48 4 9 9 34 12 55 3 20 9 37 12 37 4
0 38 -33 77 -72z m1039 51 c-4 -5 -15 -9 -26 -9 -10 0 -19 -4 -19 -9 0 -14
-43 -21 -57 -9 -23 19 -14 29 22 22 22 -4 35 -2 35 4 0 11 30 21 43 15 4 -3 5
-9 2 -14z m1545 -1 c0 -4 7 -8 16 -8 8 0 12 5 9 10 -3 6 -1 10 4 10 6 0 11 -5
11 -11 0 -5 5 -7 10 -4 6 3 10 2 10 -4 0 -5 8 -12 18 -14 10 -3 6 -5 -10 -6
-29 -1 -38 -18 -14 -27 8 -3 17 -19 20 -36 3 -18 12 -39 20 -47 7 -9 19 -33
26 -54 6 -20 18 -43 25 -51 32 -31 -24 -236 -145 -534 -23 -57 -47 -131 -53
-163 -9 -48 -14 -58 -26 -53 -9 4 -79 10 -156 15 -77 4 -164 12 -194 18 -70
14 -131 33 -131 40 0 3 7 44 15 91 8 47 24 177 35 290 22 213 55 454 66 484 6
15 7 15 18 0 11 -15 33 -16 232 -8 196 8 219 11 222 27 3 12 -3 17 -21 17 -14
0 -27 6 -30 13 -3 8 1 14 9 14 8 0 14 -4 14 -9z m190 -3 c0 -8 -4 -15 -10 -15
-5 0 -7 7 -4 15 4 8 8 15 10 15 2 0 4 -7 4 -15z m-1695 -14 c3 -6 -11 -21 -32
-35 -46 -32 -26 -34 28 -4 56 31 61 14 9 -31 -25 -22 -42 -42 -38 -46 3 -3 24
10 46 29 36 32 41 34 53 20 11 -14 10 -18 -6 -30 -10 -8 -14 -14 -9 -14 6 0
15 5 22 12 9 9 15 9 24 0 8 -8 4 -20 -17 -49 l-28 -38 35 33 c31 29 36 31 48
17 11 -14 8 -21 -21 -52 -35 -37 -22 -37 18 0 39 35 39 9 0 -31 -52 -54 -46
-75 6 -24 38 37 45 41 56 28 11 -13 8 -20 -18 -42 -45 -38 -38 -51 8 -15 60
48 58 15 -2 -41 -28 -27 -55 -48 -62 -48 -6 0 -21 21 -33 46 -25 50 -112 171
-168 233 l-35 39 43 25 c48 28 64 32 73 18z m1639 -20 c-7 -8 -35 9 -29 19 4
6 11 5 20 -3 7 -6 11 -14 9 -16z m-2925 -25 c21 -14 42 -29 45 -35 10 -16 -31
0 -53 20 -11 10 -25 19 -31 19 -5 0 -10 5 -10 10 0 6 -6 10 -14 10 -8 0 -18 4
-21 10 -9 14 36 -4 84 -34z m2973 -2 c6 -8 3 -11 -8 -10 -9 0 -21 -8 -28 -19
-6 -11 -12 -22 -14 -25 -4 -6 -32 30 -32 41 0 4 12 7 27 6 23 -2 29 3 32 23 2
16 5 20 9 10 2 -8 9 -20 14 -26z m58 15 c0 -4 -7 -6 -15 -3 -8 4 -15 10 -15
15 0 4 7 6 15 3 8 -4 15 -10 15 -15z m50 5 c0 -2 -7 -4 -15 -4 -8 0 -15 4 -15
10 0 5 7 7 15 4 8 -4 15 -8 15 -10z m54 -9 c-4 -8 -8 -15 -10 -15 -2 0 -4 7
-4 15 0 8 4 15 10 15 5 0 7 -7 4 -15z m-2124 -15 c0 -13 -11 -13 -30 0 -12 8
-11 10 8 10 12 0 22 -4 22 -10z m98 -141 c7 -79 13 -225 13 -324 0 -154 -3
-200 -26 -320 -15 -77 -31 -170 -35 -207 -13 -104 -18 -106 -72 -39 l-47 58
20 53 c11 29 27 66 35 81 8 16 28 108 44 206 22 131 34 181 47 191 16 11 16
12 -1 12 -14 0 -17 5 -13 23 8 30 10 188 4 207 -9 26 -16 141 -10 177 12 71
28 24 41 -118z m291 135 c17 -8 29 -20 26 -25 -4 -5 6 -6 22 -3 15 3 42 -1 60
-8 l32 -14 -35 -28 c-38 -30 -58 -28 -31 2 23 26 21 39 -2 18 -19 -17 -21 -16
-67 28 -51 51 -52 53 -5 30z m1681 -9 c0 -26 -24 -35 -33 -12 -3 6 -6 2 -6
-10 -1 -12 7 -26 16 -32 10 -5 15 -13 11 -17 -4 -4 -15 -1 -24 7 -9 8 -29 19
-43 26 l-26 12 29 -6 c24 -5 28 -3 23 10 -7 19 23 33 35 15 5 -9 8 -6 8 10 0
12 2 22 5 22 3 0 5 -11 5 -25z m60 -100 c0 -63 3 -85 13 -85 9 0 21 -52 40
-167 23 -139 27 -199 27 -349 l0 -182 -32 -5 c-18 -3 -68 -9 -111 -13 l-78 -6
4 103 c3 57 10 136 16 174 5 39 10 156 10 261 1 199 12 264 46 264 8 0 17 12
21 28 12 54 16 62 30 62 11 0 14 -18 14 -85z m-1972 43 c-3 -7 -13 -15 -24
-17 -16 -3 -17 -1 -5 13 16 19 34 21 29 4z m437 3 c6 -11 -6 -20 -35 -26 -21
-4 -35 9 -25 25 8 13 52 13 60 1z m-598 -27 c-3 -4 -14 -3 -24 0 -15 6 -15 8
-3 16 16 10 39 -4 27 -16z m-2863 -14 c30 -12 81 -44 117 -76 35 -30 117 -94
181 -142 89 -67 114 -90 106 -99 -14 -17 -2 -133 17 -181 22 -50 19 -51 -22
-5 -21 23 -60 58 -88 78 -27 21 -60 51 -72 68 -51 69 -241 262 -288 292 -27
18 -58 42 -68 53 -18 20 -18 21 0 31 20 12 41 9 117 -19z m3541 20 c22 -9 25
-13 15 -25 -9 -11 -17 -12 -30 -5 -10 6 -28 10 -39 10 -21 0 -27 11 -14 23 9
10 38 9 68 -3z m1333 -3 c15 6 16 -21 2 -48 -22 -41 -81 -13 -79 38 0 14 2 13
10 -5 5 -13 13 -20 19 -17 7 4 7 13 0 25 -9 18 -8 19 12 11 13 -4 29 -6 36 -4z
m-1813 -7 c5 -8 -43 -40 -60 -40 -12 0 -4 24 13 36 20 16 39 18 47 4z m349 -9
c8 -12 -41 -54 -53 -46 -25 15 -2 55 30 55 10 0 20 -4 23 -9z m222 -23 c17
-13 53 -39 80 -60 56 -41 217 -128 238 -128 7 0 44 -37 80 -82 l67 -83 -6 -85
c-3 -47 -13 -131 -22 -187 -19 -117 -18 -122 54 -149 44 -17 45 -18 39 -53 -3
-20 -6 -51 -6 -70 0 -34 0 -33 -30 22 -16 31 -30 64 -30 72 0 9 -16 32 -36 50
-34 33 -36 33 -30 9 4 -13 30 -63 58 -110 62 -104 67 -141 44 -363 -9 -83 -16
-160 -16 -171 0 -14 -7 -20 -22 -20 -21 -1 -22 -2 -5 -14 19 -15 21 -80 8
-266 l-6 -95 -28 175 c-16 96 -36 213 -45 260 -10 50 -15 108 -12 140 l5 55
13 -90 c16 -106 24 -132 30 -92 2 16 -8 99 -22 185 -19 119 -24 180 -20 252 2
52 5 130 6 173 l2 78 -51 52 c-36 37 -54 63 -58 90 -4 20 -12 40 -17 43 -6 4
-7 -9 -2 -33 9 -51 -4 -37 -27 29 -18 50 -18 51 -13 13 l5 -40 -23 25 c-13 14
-35 34 -49 45 -17 14 -16 10 7 -15 78 -88 84 -101 120 -277 20 -98 36 -206 38
-261 1 -51 2 -91 0 -90 -1 2 -16 41 -33 87 -37 100 -111 240 -157 298 -19 23
-34 44 -34 46 0 25 -151 306 -211 394 -16 23 -29 44 -29 47 0 6 57 -33 168
-114 24 -18 45 -30 48 -28 7 8 -37 44 -128 106 l-87 59 29 28 c39 37 30 45
-10 11 -36 -30 -43 -31 -60 -11 -15 18 -8 28 61 86 l49 41 62 -21 c60 -20 62
-20 38 -2 -14 11 -40 22 -58 26 -28 5 -31 9 -22 21 16 19 20 18 56 -8z m-196
-28 c-31 -28 -47 -36 -52 -27 -10 16 49 67 77 67 16 -1 12 -8 -25 -40z m-344
10 c14 3 16 -17 2 -23 -7 -3 -30 -12 -50 -21 -38 -16 -38 -16 -38 7 0 17 10
28 33 39 19 9 34 12 38 6 3 -5 10 -9 15 -8z m383 -37 c-35 -32 -53 -43 -60
-36 -8 8 3 22 37 47 67 51 82 45 23 -11z m-1258 -56 c45 -31 69 -55 74 -74 5
-21 8 -24 15 -13 7 12 16 8 47 -21 21 -19 63 -55 93 -79 30 -25 74 -63 98 -85
23 -22 49 -43 57 -48 23 -13 225 -246 225 -260 0 -23 -37 -108 -46 -107 -11 2
-176 188 -342 385 -69 83 -176 206 -236 275 -60 69 -97 113 -80 99 16 -14 59
-46 95 -72z m917 43 c5 -13 3 -13 -13 0 -16 14 -17 13 -11 -8 5 -16 3 -22 -7
-22 -9 0 -17 -5 -19 -10 -2 -6 -18 -12 -36 -14 -50 -7 -43 26 11 53 47 23 68
23 75 1z m1700 -62 c-45 -172 -114 -376 -123 -366 -2 2 16 62 41 132 39 113
58 180 79 279 3 15 9 27 14 27 5 0 0 -33 -11 -72z m-1678 24 c0 -8 -88 -68
-115 -78 -25 -10 -17 -27 10 -20 33 8 32 -4 -5 -36 l-30 -26 0 61 c0 37 4 57
9 49 6 -10 11 -9 22 4 8 9 32 25 54 35 46 20 55 22 55 11z m20 -36 c0 -15 -78
-71 -87 -62 -7 6 22 35 56 58 33 21 31 21 31 4z m-1707 -38 c-2 -13 0 -43 6
-68 6 -28 7 -46 1 -48 -6 -2 -10 -30 -10 -62 0 -51 -5 -64 -44 -123 -24 -36
-54 -83 -67 -106 -22 -39 -23 -40 -41 -24 -28 25 -108 191 -108 222 0 32 37
63 107 89 34 13 52 26 62 47 16 36 70 95 87 95 6 0 9 -10 7 -22z m3388 -143
l-8 -160 -1 131 c-2 114 4 201 13 192 2 -2 0 -75 -4 -163z m-1654 128 c5 -13
-66 -56 -82 -49 -7 2 -12 -3 -11 -12 1 -11 -12 -21 -34 -28 -28 -9 -35 -17
-36 -38 -1 -17 5 -28 18 -32 33 -10 89 -69 83 -86 -4 -9 -33 -39 -66 -68 -51
-44 -59 -56 -59 -86 l0 -35 79 61 c44 33 83 65 86 70 12 19 47 10 89 -22 41
-32 56 -48 56 -59 0 -11 -49 -59 -61 -59 -7 0 -5 -8 6 -20 19 -21 45 -27 45
-10 0 5 11 12 24 16 15 3 29 17 34 32 l8 25 18 -36 c19 -41 12 -62 -19 -62
-13 0 -21 -8 -23 -24 -2 -15 0 -21 7 -17 10 6 15 -6 12 -26 0 -5 8 -8 19 -8
23 0 27 -15 6 -23 -8 -3 -22 -20 -31 -38 -16 -29 -16 -33 0 -48 15 -15 17 -15
30 2 22 31 25 -88 3 -133 -10 -19 -18 -54 -18 -77 0 -36 3 -43 20 -43 25 0 27
-28 3 -45 -16 -12 -16 -15 1 -53 10 -22 19 -59 21 -83 5 -59 -15 -327 -25
-353 -5 -12 -9 -15 -9 -9 -1 7 -14 19 -31 28 -19 10 -30 23 -30 37 0 17 4 20
30 15 27 -6 30 -4 30 18 0 20 -5 25 -25 25 -21 0 -25 5 -25 28 0 34 -37 58
-81 53 -27 -2 -29 0 -24 22 5 19 -1 33 -25 61 l-32 36 21 26 c12 15 21 31 21
37 0 6 -7 2 -15 -9 -8 -11 -15 -14 -15 -6 0 6 -5 12 -11 12 -5 0 -8 -3 -6 -7
3 -5 -8 -9 -24 -10 -24 -2 -106 -57 -139 -93 -3 -3 -33 -27 -67 -53 -66 -50
-106 -94 -98 -107 3 -5 1 -11 -5 -15 -14 -9 -13 16 6 93 18 71 34 102 34 63
l0 -22 33 22 c17 12 37 27 42 33 6 6 30 27 55 46 43 33 69 59 70 70 0 3 -4 12
-10 20 -8 12 -13 12 -43 -2 -47 -23 -107 -76 -107 -97 0 -14 -2 -14 -10 -1 -8
13 -10 13 -10 -1 0 -9 -7 -23 -17 -30 -15 -13 -15 -10 -9 36 10 64 25 93 37
74 6 -9 9 -10 9 -2 0 6 8 14 18 17 9 3 41 28 70 55 85 79 61 109 -43 50 -63
-35 -63 -34 -46 58 16 85 30 176 36 237 4 37 10 54 15 46 4 -7 6 -19 3 -26 -8
-21 158 -161 177 -149 6 3 10 17 10 31 0 27 -24 53 -108 117 l-53 40 43 44
c56 57 69 60 121 25 32 -23 47 -28 60 -21 24 14 21 29 -15 66 l-32 33 34 35
c28 29 31 37 20 50 -7 8 -17 15 -22 15 -16 0 -131 -85 -182 -135 -42 -40 -46
-48 -34 -62 8 -10 8 -14 1 -10 -7 4 -13 0 -16 -10 -12 -44 -6 45 7 110 18 92
25 160 28 271 1 62 6 90 15 93 7 3 13 11 13 17 0 7 22 23 50 36 27 13 58 32
67 42 17 19 34 20 40 1z m62 -105 c62 -133 89 -201 95 -238 l6 -35 -12 30
c-14 38 -43 76 -52 68 -3 -3 -6 -1 -6 5 0 6 -46 46 -102 88 -55 42 -98 72 -94
66 3 -6 2 -13 -3 -16 -5 -4 -8 2 -7 11 2 10 26 31 54 48 28 16 57 36 64 43 6
6 14 12 15 12 2 0 21 -37 42 -82z m-2377 -69 c58 -30 59 -45 3 -39 -11 1 -26
7 -33 12 -7 6 -15 8 -19 5 -3 -4 7 -12 23 -19 l28 -13 -44 -5 c-54 -6 -130 29
-130 61 0 29 -12 23 -43 -22 -31 -43 -37 -44 -110 -9 -20 10 -40 14 -43 9 -5
-10 53 -49 74 -49 19 0 14 -29 -23 -120 -19 -47 -35 -95 -35 -107 0 -13 -4
-23 -10 -23 -5 0 -10 16 -10 35 0 20 -8 52 -19 73 -25 51 -58 157 -66 213 -9
72 10 89 115 100 47 5 105 16 130 23 l45 13 65 -59 c36 -33 82 -69 102 -79z
m3925 -76 c-3 -60 -12 -160 -18 -224 l-13 -117 -56 -5 c-30 -2 -57 -3 -59 -1
-10 9 44 207 73 264 18 36 41 93 51 128 10 34 21 62 23 62 3 0 2 -48 -1 -107z
m-3837 14 c-1 -7 -19 -25 -42 -41 -38 -26 -44 -27 -79 -17 -43 13 -66 36 -26
26 34 -9 105 12 119 35 12 19 28 18 28 -3z m1470 -47 c32 -40 34 -65 8 -97
-14 -18 -48 -16 -48 2 0 18 -17 20 -23 3 -7 -22 -37 11 -37 40 0 25 43 92 60
92 4 0 23 -18 40 -40z m-1440 -37 c0 -27 1 -27 -40 -10 l-32 14 29 21 c30 22
43 15 43 -25z m1320 9 c0 -37 -110 -132 -152 -132 -17 0 -27 30 -10 30 4 0 32
23 62 51 45 41 75 63 98 68 1 1 2 -7 2 -17z m2360 -59 c-10 -28 -32 -115 -49
-194 -24 -117 -29 -134 -30 -94 -1 69 23 175 60 268 35 85 50 102 19 20z m157
0 c-3 -10 -5 -2 -5 17 0 19 2 27 5 18 2 -10 2 -26 0 -35z m-2297 -48 c0 -4 -9
4 -20 18 -11 14 -20 28 -20 32 0 4 9 -4 20 -18 11 -14 20 -28 20 -32z m1420 4
c24 -20 25 -27 28 -148 4 -156 -8 -151 -38 17 -11 68 -24 130 -27 138 -7 20 8
17 37 -7z m867 -191 c-1 -40 -3 -8 -3 72 0 80 2 112 3 73 2 -40 2 -106 0 -145z
m-2427 187 c0 -8 -7 -15 -16 -15 -14 0 -14 -3 -4 -15 7 -8 9 -15 4 -15 -5 0
-1 -5 8 -10 12 -8 26 -4 54 15 42 29 61 31 83 11 9 -8 29 -17 44 -20 16 -3 38
-15 48 -28 11 -13 40 -44 65 -70 42 -45 59 -79 32 -61 -26 16 -41 11 -80 -28
-22 -21 -43 -39 -46 -39 -4 -1 -23 -14 -42 -30 -19 -17 -44 -30 -56 -30 -24 0
-114 75 -114 95 0 7 16 23 36 36 34 21 35 23 18 36 -24 18 -37 16 -67 -7 -14
-11 -34 -20 -45 -20 -19 0 -122 77 -122 91 0 27 53 21 89 -10 21 -18 55 -18
66 0 3 4 -10 23 -30 42 -19 19 -35 37 -35 41 0 12 65 46 88 46 13 0 22 -6 22
-15z m1507 -7 c-3 -8 -6 -5 -6 6 -1 11 2 17 5 13 3 -3 4 -12 1 -19z m-1343
-14 c9 -3 16 -11 16 -16 0 -7 -5 -6 -13 1 -8 6 -17 8 -20 4 -4 -3 -7 -1 -7 5
0 14 2 14 24 6z m-411 -18 c22 -17 22 -39 -3 -61 -36 -32 -73 4 -52 51 13 27
28 30 55 10z m52 -116 c0 -28 -4 -36 -22 -38 -22 -3 -63 28 -63 48 0 14 39 30
65 27 16 -2 20 -9 20 -37z m-151 -5 c3 -8 1 -15 -4 -15 -6 0 -10 7 -10 15 0 8
2 15 4 15 2 0 6 -7 10 -15z m57 -18 c21 -16 31 -48 20 -65 -6 -10 -12 -8 -23
10 -20 30 -32 68 -21 68 4 0 15 -6 24 -13z m1378 -89 c1 -10 -3 -18 -8 -18
-11 0 -17 18 -25 75 l-5 40 19 -40 c10 -22 19 -48 19 -57z m-1405 50 c10 -38
6 -45 -9 -18 -17 29 -18 40 -6 40 5 0 11 -10 15 -22z m205 -45 c38 -32 90 -74
116 -93 25 -19 56 -44 68 -56 12 -12 40 -34 62 -50 22 -15 65 -49 95 -74 30
-25 74 -58 96 -72 36 -23 44 -25 60 -14 17 13 16 16 -14 50 -18 20 -32 40 -32
44 0 5 13 21 30 37 28 27 29 30 14 46 -16 17 -18 17 -48 -5 -47 -35 -62 -37
-98 -12 -47 31 -78 59 -78 69 0 12 39 50 85 82 22 16 52 42 67 57 29 30 51 29
69 -3 8 -15 6 -19 -6 -19 -10 0 -13 -5 -9 -11 4 -7 1 -10 -7 -7 -7 2 -25 -6
-39 -18 -14 -12 -38 -33 -55 -47 -29 -25 -30 -26 -11 -44 13 -12 20 -14 23 -6
2 7 11 9 19 6 8 -3 14 -1 14 5 0 5 13 15 30 22 26 11 32 9 56 -9 15 -12 33
-21 40 -21 8 0 14 -5 14 -11 0 -6 8 -3 18 7 16 17 17 17 20 -2 2 -11 -2 -40
-8 -65 -6 -24 -13 -62 -16 -84 -8 -67 -25 -135 -35 -135 -5 0 -9 7 -9 15 0 13
-5 12 -35 -2 -35 -17 -35 -17 -68 14 -17 16 -60 51 -94 77 -34 25 -68 52 -75
59 -7 7 -31 26 -53 42 -41 31 -87 69 -114 95 -9 8 -54 44 -101 80 -86 66 -120
96 -120 105 0 3 13 5 30 5 21 0 49 -16 99 -57z m2565 -40 c9 -22 -20 -51 -35
-36 -8 8 -6 11 6 10 27 -3 30 22 3 32 -22 9 -22 10 -2 10 12 1 25 -7 28 -16z
m-2029 -25 l16 -33 -20 25 c-20 24 -26 40 -16 40 2 0 12 -15 20 -32z m680 16
c0 -5 -10 -10 -22 -12 -16 -2 -23 2 -23 12 0 11 7 15 23 12 12 -1 22 -7 22
-12z m-1317 -11 c11 -10 28 -25 38 -33 11 -8 33 -26 50 -40 17 -14 43 -34 59
-45 15 -11 35 -27 44 -35 9 -8 34 -28 56 -45 22 -16 71 -55 110 -87 38 -32 87
-72 108 -89 20 -16 37 -38 37 -48 0 -10 -19 -34 -41 -55 -23 -20 -39 -39 -36
-43 11 -10 105 19 123 38 9 10 23 19 31 19 7 0 13 7 13 15 0 8 6 15 14 15 8 0
19 12 24 28 10 26 10 26 11 4 2 -40 -31 -140 -38 -119 -6 17 -8 16 -28 -5 -16
-17 -20 -31 -16 -47 6 -23 7 -23 19 -6 13 17 14 17 20 1 6 -17 -8 -96 -43
-234 l-15 -62 -20 37 c-11 21 -33 52 -49 68 -35 38 -40 69 -6 37 31 -29 38
-28 64 10 20 28 21 34 9 46 -8 8 -26 15 -40 15 -33 0 -34 13 -1 21 15 4 27 16
31 31 3 14 10 25 15 25 5 0 9 5 9 11 0 8 -5 7 -15 -1 -13 -11 -19 -9 -35 8
-25 27 -47 19 -65 -22 l-13 -31 -1 38 c-1 45 -22 57 -60 34 -33 -20 -38 -43
-15 -68 15 -16 15 -19 2 -19 -17 0 -159 162 -215 245 -19 28 -44 64 -56 80
-92 125 -150 214 -103 160 14 -16 26 -25 26 -20 0 6 4 4 9 -3 4 -7 17 -15 27
-16 14 -2 19 -11 19 -35 0 -17 6 -35 14 -40 7 -5 10 -15 7 -22 -4 -8 -1 -6 7
4 26 31 71 21 124 -27 l48 -45 -35 -29 c-29 -24 -32 -32 -22 -44 14 -18 56
-13 73 8 17 21 45 17 86 -10 34 -23 37 -24 60 -8 l25 16 -33 28 c-19 16 -50
41 -69 56 -19 15 -37 29 -40 32 -3 3 -25 21 -50 40 -25 19 -51 41 -59 48 -7 7
-49 40 -92 73 -75 57 -129 118 -129 146 0 17 7 16 28 -4z m2379 -25 c-3 -8 -6
-5 -6 6 -1 11 2 17 5 13 3 -3 4 -12 1 -19z m43 -4 c0 -8 -4 -12 -10 -9 -5 3
-10 10 -10 16 0 5 5 9 10 9 6 0 10 -7 10 -16z m285 -35 c9 -17 14 -40 12 -52
-4 -18 -5 -17 -6 5 0 18 -10 34 -27 44 -19 13 -22 19 -12 25 17 12 15 13 33
-22z m-311 15 c23 -9 20 -24 -4 -24 -11 0 -20 7 -20 15 0 17 2 18 24 9z m255
-208 c2 -33 -10 -11 -25 49 -10 38 -13 72 -8 99 7 39 8 38 20 -44 7 -47 13
-94 13 -104z m-189 -34 c0 -115 -2 -125 -22 -141 l-21 -18 -39 111 c-31 90
-37 119 -32 156 9 60 16 71 55 84 34 11 34 11 46 -29 7 -22 13 -94 13 -163z
m240 170 c0 -15 -2 -15 -10 -2 -13 20 -13 33 0 25 6 -3 10 -14 10 -23z m-2630
-245 c0 -4 -7 -10 -15 -13 -27 -11 -8 -74 32 -111 37 -35 59 -43 50 -19 -4 10
-1 13 9 9 10 -4 12 0 8 11 -3 9 -10 16 -15 16 -5 0 -9 8 -9 17 0 10 13 -1 33
-27 17 -24 53 -67 78 -95 39 -43 45 -55 43 -88 -2 -32 2 -40 21 -47 13 -5 33
-6 46 -3 22 5 23 5 8 -12 -27 -28 -72 -11 -119 45 -45 53 -47 62 -24 85 16 15
16 18 0 33 -15 15 -18 15 -45 -1 -21 -12 -36 -14 -60 -7 -22 6 -31 5 -32 -3
-1 -21 -20 36 -35 103 -8 36 -23 97 -35 135 -11 39 -23 79 -26 90 -3 11 15 -9
41 -45 25 -36 46 -69 46 -73z m2637 63 c10 0 14 6 10 20 -3 11 -1 23 4 26 15
9 10 -44 -6 -60 -8 -8 -16 -23 -16 -33 -2 -29 -18 59 -17 92 1 24 2 23 5 -7 3
-26 9 -38 20 -38z m-2587 -135 c0 -5 -5 -3 -10 5 -5 8 -10 20 -10 25 0 6 5 3
10 -5 5 -8 10 -19 10 -25z m839 -22 c8 -14 12 -15 22 -6 19 19 39 -3 39 -41 0
-23 -9 -41 -34 -65 -19 -18 -38 -31 -43 -28 -5 3 -18 24 -28 47 -17 38 -17 43
-2 75 19 39 31 44 46 18z m-78 -93 c9 -14 20 -35 24 -47 5 -18 0 -23 -29 -33
-54 -18 -103 -4 -115 32 -14 39 -14 38 3 38 7 0 16 9 19 21 8 30 74 23 98 -11z
m237 -22 c8 -8 9 -14 2 -23 -8 -9 -6 -14 5 -19 37 -14 -1 -56 -51 -56 -37 0
-94 24 -94 40 0 5 16 26 36 45 30 30 41 35 63 30 14 -4 32 -11 39 -17z m-980
-106 c17 -16 32 -25 32 -20 0 6 13 -3 29 -18 16 -16 43 -40 61 -54 19 -14 49
-39 69 -55 20 -17 56 -46 81 -65 25 -19 53 -42 64 -52 10 -9 25 -14 34 -11 12
5 14 0 8 -33 -4 -21 -9 -41 -11 -43 -2 -1 -21 13 -42 32 -21 19 -103 87 -183
150 -137 109 -145 114 -148 90 -2 -14 2 -29 9 -34 8 -4 11 -10 8 -13 -16 -16
-45 69 -63 184 l-6 35 13 -31 c6 -18 27 -45 45 -62z m637 43 c31 -32 31 -35 2
-35 -28 0 -64 -34 -48 -45 6 -3 18 -20 27 -37 15 -28 14 -31 -5 -49 -22 -21
-28 -54 -11 -64 6 -3 23 3 38 14 50 36 73 35 117 -4 22 -19 44 -35 49 -35 4 0
6 -10 4 -23 -4 -21 -1 -24 38 -26 35 -1 43 2 49 19 5 15 0 29 -15 45 -12 13
-19 28 -16 34 4 5 -7 18 -24 27 -16 10 -33 27 -36 37 -7 22 5 95 17 102 14 9
79 -26 96 -52 13 -19 14 -29 4 -49 -7 -16 -17 -24 -25 -21 -8 3 -17 3 -20 0
-8 -8 14 -44 23 -39 5 3 16 -3 26 -14 10 -11 23 -20 28 -20 5 0 23 -13 38 -30
16 -16 29 -27 29 -23 0 4 5 2 11 -4 7 -7 13 -28 15 -47 3 -31 0 -36 -19 -34
-12 1 -33 -2 -47 -7 -25 -8 -25 -7 -7 13 25 27 18 64 -15 79 -37 18 -58 7 -58
-31 0 -51 11 -76 32 -76 11 0 18 -5 16 -12 -6 -17 23 -48 44 -48 23 0 30 -14
20 -40 -8 -21 -8 -21 -20 4 -10 23 -58 53 -69 43 -2 -3 -8 -18 -12 -35 -12
-41 11 -76 45 -68 31 8 30 -2 -5 -51 -31 -42 -86 -71 -94 -50 -8 19 -74 50
-92 43 -14 -5 -14 -8 0 -30 28 -42 62 -59 96 -47 44 15 34 -1 -14 -23 -47 -21
-61 -21 -85 0 -9 7 -34 29 -56 47 l-38 33 63 59 c35 32 55 55 44 51 -16 -6
-18 -5 -7 5 6 7 12 22 12 33 -1 19 -2 19 -11 4 -5 -9 -15 -15 -22 -13 -6 3
-30 -11 -52 -31 -22 -19 -53 -38 -68 -41 -15 -3 -32 -15 -38 -26 -9 -16 -18
-18 -51 -14 -22 3 -42 8 -45 10 -2 3 3 21 12 41 15 31 22 36 51 36 26 0 32 -4
28 -15 -4 -10 0 -15 10 -15 9 0 19 7 22 14 3 8 31 34 62 58 55 41 118 96 97
85 -5 -3 -11 5 -11 18 -2 21 0 21 28 -11 30 -34 67 -44 96 -25 21 13 -10 79
-40 85 -41 8 -59 4 -47 -11 9 -10 8 -13 -5 -13 -9 0 -16 5 -16 10 0 14 -16 13
-32 -3 -21 -20 -182 -141 -205 -154 -11 -6 -24 -9 -27 -6 -16 16 0 41 47 76
88 64 171 142 163 155 -11 18 -48 14 -76 -8 -31 -24 -44 -25 -75 -4 -28 18
-73 25 -81 13 -3 -5 6 -21 20 -36 28 -30 32 -50 13 -73 -21 -26 -71 -57 -100
-62 -32 -6 -31 -12 -9 82 14 57 39 175 48 219 4 23 9 30 14 20 5 -7 7 -16 5
-20 -3 -3 6 -11 19 -17 20 -9 27 -7 40 7 15 16 14 19 -10 38 -15 12 -33 19
-42 16 -12 -5 -14 0 -8 27 7 36 21 51 41 44 6 -3 22 7 35 21 30 31 43 31 75 0z
m-341 -13 c7 -11 -6 -27 -24 -29 -10 -2 -16 5 -16 17 0 20 29 29 40 12z m474
-51 c4 -43 -12 -75 -46 -91 -23 -10 -28 -9 -41 9 -7 12 -20 21 -27 21 -38 0
12 87 53 93 50 8 58 4 61 -32z m-2118 -41 c0 -5 -5 -10 -11 -10 -5 0 -7 5 -4
10 3 6 8 10 11 10 2 0 4 -4 4 -10z m2339 -17 c20 -14 44 -34 53 -44 9 -9 22
-19 29 -21 8 -3 9 -15 5 -36 l-7 -31 -27 24 c-15 13 -44 40 -64 59 -21 19 -38
43 -38 55 0 27 6 26 49 -6z m-784 -13 c-6 -9 8 -12 71 -14 24 -1 50 -21 65
-48 16 -30 0 -42 -26 -18 -17 16 -24 18 -28 8 -4 -9 -6 -7 -6 5 -1 10 -9 17
-20 17 -23 0 -73 39 -66 51 4 5 8 9 11 9 3 0 2 -4 -1 -10z m-1583 -110 c-4
-30 -11 -53 -17 -51 -5 1 -9 7 -7 13 1 5 -2 7 -7 3 -6 -3 -8 -12 -4 -20 3 -8
1 -15 -5 -15 -11 0 -32 -75 -32 -116 0 -25 2 -26 35 -21 19 3 35 2 35 -4 0 -5
-11 -9 -25 -9 -49 0 -42 -39 20 -106 19 -21 25 -37 25 -73 0 -33 -3 -42 -10
-31 -8 13 -10 13 -10 -2 0 -9 -4 -19 -9 -22 -5 -4 -7 4 -4 16 4 21 3 21 -7 5
-6 -10 -9 -24 -7 -31 9 -24 -23 -71 -72 -103 -54 -37 -71 -40 -108 -16 -24 16
-26 16 -40 -3 -13 -17 -13 -13 -7 36 4 30 11 64 17 75 10 19 11 19 19 -7 9
-27 44 -43 72 -32 23 9 20 35 -4 41 -11 3 -20 12 -20 20 0 8 -4 12 -9 9 -5 -4
-11 0 -14 6 -3 10 -8 10 -22 -2 -16 -14 -17 -13 -12 5 3 11 8 39 12 62 5 33
16 49 56 83 27 22 49 47 49 54 0 8 -13 19 -30 26 -16 7 -30 16 -30 21 0 5 16
1 35 -8 19 -9 37 -14 40 -11 3 3 8 28 12 56 4 39 2 58 -11 76 -9 14 -16 30
-16 35 0 19 105 119 112 107 3 -6 3 -36 0 -66z m1414 28 c10 6 24 1 24 -9 0
-11 25 -39 35 -39 7 0 107 -76 155 -117 14 -12 36 -31 49 -42 13 -11 27 -18
31 -16 15 10 20 -27 9 -72 -8 -31 -14 -40 -20 -31 -5 7 -9 9 -9 3 0 -5 -13
-17 -29 -27 -28 -15 -31 -15 -65 8 -37 26 -56 30 -56 14 0 -5 -3 -9 -7 -9 -30
5 -29 -5 2 -32 19 -17 35 -35 35 -40 0 -5 -13 -21 -29 -36 -26 -25 -27 -28
-13 -40 15 -11 12 -12 -20 -13 -32 0 -39 4 -44 25 -4 18 -1 32 11 45 9 10 14
24 10 30 -6 9 -9 9 -15 0 -5 -8 -12 8 -18 41 -21 104 -42 204 -48 227 -8 27
12 30 21 3 3 -10 17 -31 32 -45 18 -18 23 -31 18 -43 -5 -10 -7 -22 -6 -27 1
-5 -6 -6 -15 -2 -12 5 -15 2 -10 -10 3 -8 6 -22 6 -30 0 -21 15 -17 48 11 37
31 47 31 94 -1 36 -25 39 -26 63 -10 l26 17 -90 72 c-49 40 -101 81 -115 91
-14 10 -26 25 -26 33 0 11 -5 10 -25 -3 -24 -16 -25 -15 -34 9 -5 14 -13 42
-17 63 l-7 39 23 -20 c12 -11 24 -19 26 -17z m1092 -156 c15 -13 47 -37 72
-53 42 -27 46 -28 57 -12 7 9 13 12 13 6 0 -6 -26 -34 -59 -62 -42 -36 -79
-58 -129 -75 -60 -20 -69 -21 -60 -7 6 9 19 18 30 18 28 2 34 11 19 26 -9 9
-14 9 -21 -3 -15 -25 -18 -7 -3 28 l13 33 40 -22 c33 -19 44 -21 65 -11 33 15
25 30 -36 72 -28 19 -52 38 -55 42 -3 4 1 27 8 50 11 36 14 39 16 18 2 -13 16
-35 30 -48z m-637 -108 c13 -16 6 -50 -17 -79 -15 -20 -16 -20 -40 8 -21 25
-32 75 -19 89 9 9 64 -4 76 -18z m-61 -116 c0 -5 -17 -16 -37 -25 -21 -8 -41
-20 -45 -27 -14 -20 -9 18 8 68 l16 47 29 -27 c16 -15 29 -32 29 -36z m685 3
c-15 -13 -136 -54 -142 -47 -7 6 -2 8 82 35 74 23 71 23 60 12z m-821 -80
c-15 -52 -16 -53 -46 -47 -17 3 -41 6 -55 6 -32 0 -21 17 18 25 17 4 45 22 62
40 17 19 33 32 34 31 2 -1 -4 -26 -13 -55z m170 8 c8 -37 -26 -79 -64 -79 -16
0 -32 4 -35 10 -3 5 -1 10 4 10 6 0 11 12 11 28 0 35 10 49 40 60 29 11 35 7
44 -29z"/>
<path d="M3303 5943 c-21 -50 -29 -123 -14 -123 6 0 11 8 11 18 0 11 9 45 20
77 23 68 23 65 9 65 -5 0 -17 -17 -26 -37z"/>
<path d="M3067 5576 c-5 -15 -6 -31 -3 -34 8 -8 18 25 14 45 -3 13 -6 10 -11
-11z"/>
<path d="M3278 5584 c-29 -15 -37 -34 -15 -34 13 0 77 37 77 45 0 10 -35 4
-62 -11z"/>
<path d="M2186 5061 c13 -12 74 -22 74 -12 0 12 -26 21 -58 21 -15 0 -22 -4
-16 -9z"/>
<path d="M2070 4724 c0 -17 22 -14 28 4 2 7 -3 12 -12 12 -9 0 -16 -7 -16 -16z"/>
<path d="M4255 4072 c-53 -17 -145 -98 -145 -127 0 -9 23 8 58 43 43 44 69 62
105 72 26 7 50 17 53 21 8 13 -14 10 -71 -9z"/>
<path d="M3470 3931 c-54 -17 -108 -51 -148 -95 -56 -61 -53 -69 6 -14 71 66
221 130 241 101 3 -5 26 -16 51 -25 25 -8 53 -19 64 -23 14 -6 18 -5 14 6 -6
18 -123 58 -168 58 -19 0 -46 -4 -60 -8z"/>
<path d="M4240 3743 c0 -7 5 -13 10 -13 6 0 10 -8 10 -17 0 -14 -6 -11 -25 12
-35 43 -31 14 7 -41 l31 -47 17 44 c9 24 14 48 11 54 -3 5 -9 -5 -15 -23 -5
-17 -12 -32 -17 -32 -4 0 -3 15 2 32 12 44 12 44 -11 44 -11 0 -20 -6 -20 -13z"/>
<path d="M4188 3674 c-5 -4 -8 -19 -8 -33 0 -18 3 -22 11 -14 6 6 9 21 7 33
-1 12 -6 18 -10 14z"/>
<path d="M4191 3488 c11 -21 11 -22 -5 -9 -9 8 -19 11 -23 7 -3 -3 -2 -6 4 -6
6 0 13 -7 17 -15 5 -13 2 -14 -15 -4 -19 10 -20 9 -9 -10 13 -26 26 -27 39 -3
10 16 10 15 11 -3 1 -11 4 -14 7 -8 3 9 10 10 24 3 13 -8 19 -7 19 1 0 6 -8
13 -19 16 -10 2 -24 16 -30 29 -6 13 -15 24 -21 24 -7 0 -7 -8 1 -22z"/>
<path d="M4232 3361 c-18 -22 -32 -48 -31 -58 0 -17 1 -17 12 1 7 10 22 34 35
53 32 49 22 51 -16 4z"/>
<path d="M4195 3129 c-16 -11 -40 -19 -52 -19 -12 0 -25 -5 -28 -10 -3 -6 -25
-9 -48 -8 -23 1 -79 -4 -123 -10 -45 -7 -109 -12 -143 -10 -65 2 -100 -14 -71
-32 8 -6 24 -9 35 -8 11 1 41 -9 67 -22 53 -27 73 -21 37 10 l-24 21 40 -6
c79 -12 151 -15 130 -6 -11 5 -36 10 -55 11 -30 2 -26 4 25 14 55 11 61 11 76
-7 9 -11 21 -17 28 -13 21 13 11 -15 -15 -41 -23 -23 -31 -25 -80 -19 -30 3
-54 2 -54 -3 0 -21 107 -29 141 -11 10 6 29 30 40 53 12 23 42 61 68 84 50 46
53 61 6 32z"/>
<path d="M4013 2923 c-23 -9 -14 -20 12 -15 14 2 25 8 25 13 0 10 -17 11 -37
2z"/>
<path d="M3985 2880 c3 -5 18 -10 33 -10 25 0 25 -1 9 -17 -16 -16 -18 -15
-42 7 -14 13 -28 20 -32 16 -13 -12 45 -56 65 -49 21 7 62 43 62 55 0 4 -23 8
-51 8 -31 0 -48 -4 -44 -10z"/>
<path d="M3823 2405 c27 -14 56 -25 65 -23 15 3 -13 16 -93 43 -11 3 2 -6 28
-20z"/>
<path d="M5365 3750 c-7 -32 1 -54 16 -45 12 8 12 62 0 69 -5 4 -12 -7 -16
-24z"/>
<path d="M5407 3773 c-11 -10 -8 -43 3 -43 6 0 10 11 10 25 0 26 -2 29 -13 18z"/>
<path d="M6182 3568 c-7 -8 -40 -87 -75 -174 l-64 -159 5 -97 c2 -54 8 -98 13
-98 5 0 9 40 9 90 0 86 2 96 66 260 61 161 75 212 46 178z"/>
<path d="M3435 3564 c-8 -19 -23 -47 -33 -62 -10 -15 -22 -35 -25 -44 -11 -32
8 -19 33 22 13 21 26 37 29 35 2 -3 -8 -22 -23 -43 -28 -41 -32 -52 -17 -52 6
0 22 22 38 50 15 27 32 50 36 50 5 0 0 -12 -11 -27 -10 -16 -22 -37 -25 -48
-6 -17 -4 -17 13 4 19 22 20 23 20 2 0 -14 5 -19 15 -15 8 4 15 16 15 28 0 14
3 17 8 8 13 -19 35 -6 51 29 11 26 11 32 -3 48 -9 10 -16 23 -16 29 0 15 -13
15 -28 0 -9 -9 -12 -9 -12 0 0 7 -4 12 -10 12 -18 0 -11 -28 16 -59 14 -17 24
-37 21 -43 -3 -9 -8 -6 -13 7 -4 11 -13 25 -18 32 -33 38 -37 45 -32 59 12 31
-15 12 -29 -22z m25 -24 c0 -5 -4 -10 -10 -10 -5 0 -10 5 -10 10 0 6 5 10 10
10 6 0 10 -4 10 -10z m90 -23 c0 -5 -4 -5 -10 -2 -5 3 -10 14 -10 23 0 15 2
15 10 2 5 -8 10 -19 10 -23z"/>
<path d="M2585 3379 c-4 -12 -2 -26 4 -32 8 -8 11 -2 11 21 0 37 -6 41 -15 11z"/>
<path d="M2610 3316 c0 -17 22 -41 52 -57 32 -17 28 -7 -14 34 -22 21 -38 31
-38 23z"/>
<path d="M2530 3302 c0 -11 109 -117 114 -111 6 5 -96 119 -107 119 -4 0 -7
-4 -7 -8z"/>
<path d="M5495 2831 c-6 -11 13 -26 22 -17 4 3 0 6 -8 6 -11 0 -11 2 1 10 9 6
10 10 3 10 -6 0 -14 -4 -18 -9z"/>
<path d="M5425 2810 c-13 -5 -14 -9 -5 -9 8 0 24 4 35 9 13 5 14 9 5 9 -8 0
-24 -4 -35 -9z"/>
<path d="M2946 2380 c-43 -36 -82 -73 -88 -84 -8 -14 -7 -17 1 -12 6 4 11 1
11 -7 0 -20 33 -11 63 17 12 11 51 42 85 68 34 26 58 49 52 53 -5 3 -10 12 -9
18 0 9 2 9 6 0 2 -7 9 -13 15 -13 6 0 6 6 -2 15 -21 26 -54 13 -134 -55z"/>
<path d="M3089 2354 c-20 -15 -33 -32 -31 -42 2 -14 1 -14 -7 -3 -8 12 -17 8
-53 -24 -24 -21 -46 -43 -49 -48 -3 -5 -9 -8 -13 -8 -19 3 -26 0 -26 -13 0
-20 41 -60 93 -90 40 -24 48 -26 53 -12 3 9 10 13 15 10 17 -10 9 3 -21 34
-16 18 -30 39 -30 48 0 15 77 94 92 94 4 0 8 7 8 15 0 8 5 15 10 15 6 0 10
-11 10 -25 0 -16 -6 -25 -16 -25 -13 0 -15 -7 -10 -32 8 -40 20 -48 74 -48 41
0 42 1 42 33 0 37 -27 77 -55 81 -11 2 -21 12 -23 24 -6 39 -26 44 -63 16z"/>
<path d="M3111 2153 c-19 -23 -20 -28 -6 -43 8 -9 15 -22 15 -28 0 -7 15 -12
35 -12 36 0 55 19 70 69 9 29 -7 41 -57 41 -28 0 -42 -6 -57 -27z"/>
<path d="M3237 2113 c-24 -60 10 -125 48 -93 11 9 15 9 15 1 0 -19 20 -1 31
27 13 33 -4 68 -43 88 -36 19 -34 19 -51 -23z"/>
<path d="M3190 2012 c0 -4 -14 -16 -30 -26 -30 -17 -32 -17 -71 3 -42 22 -69
27 -69 12 0 -5 -3 -16 -6 -25 -4 -11 -1 -16 10 -16 23 0 45 -48 27 -59 -10 -7
-10 -12 0 -30 8 -11 17 -21 22 -21 12 0 167 119 167 128 -1 24 -50 57 -50 34z"/>
<path d="M5918 2443 c7 -3 16 -2 19 1 4 3 -2 6 -13 5 -11 0 -14 -3 -6 -6z"/>
<path d="M4891 2243 c45 -43 96 -85 113 -94 18 -8 54 -31 82 -49 27 -19 43
-26 35 -17 -8 10 -40 34 -72 54 -33 20 -59 41 -59 48 0 6 -25 29 -56 51 -31
21 -68 49 -84 62 -59 47 -38 19 41 -55z"/>
<path d="M5176 1625 c4 -8 11 -15 16 -15 6 0 5 6 -2 15 -7 8 -14 15 -16 15 -2
0 -1 -7 2 -15z"/>
<path d="M4094 2394 c-18 -14 -18 -14 6 -3 31 14 36 19 24 19 -6 0 -19 -7 -30
-16z"/>
<path d="M2463 2150 c-48 -66 -63 -93 -63 -114 0 -27 14 -17 39 27 13 23 34
59 48 79 41 60 20 67 -24 8z"/>
<path d="M2502 2147 c-17 -20 -52 -100 -51 -117 0 -8 16 16 35 54 33 64 40 93
16 63z"/>
<path d="M4096 1994 c-9 -22 -8 -24 9 -24 8 0 15 9 15 20 0 24 -15 27 -24 4z"/>
<path d="M4176 1661 c-4 -5 0 -12 6 -14 10 -4 10 -8 -1 -15 -12 -8 -8 -16 20
-42 43 -40 84 -61 102 -54 8 3 35 29 60 59 l47 53 -30 7 c-22 5 -40 1 -66 -14
-45 -27 -50 -26 -90 4 -36 28 -40 29 -48 16z"/>
<path d="M4320 1505 c0 -23 -2 -25 -21 -14 -30 15 -44 -2 -43 -52 1 -30 9 -48
30 -70 28 -30 83 -59 109 -59 18 0 35 54 35 107 0 38 -6 51 -34 79 -42 42 -76
46 -76 9z"/>
<path d="M4028 1493 c-1 -10 -3 -31 -4 -48 -1 -16 -6 -49 -10 -72 -8 -51 1
-54 46 -16 34 28 30 29 98 -15 14 -9 22 -10 22 -3 0 6 7 11 15 11 30 0 14 28
-44 76 -82 68 -104 84 -113 84 -4 0 -9 -8 -10 -17z"/>
<path d="M4181 1304 c-36 -30 -39 -50 -10 -59 19 -6 19 -8 5 -24 -22 -24 -20
-36 9 -49 55 -25 104 -11 168 47 41 38 35 58 -25 86 -69 32 -108 32 -147 -1z"/>
<path d="M4378 1209 c-62 -46 -84 -120 -52 -180 14 -29 17 -30 38 -16 20 13
23 13 32 0 23 -37 84 22 84 82 0 44 -47 136 -69 135 -3 0 -18 -10 -33 -21z"/>
<path d="M4453 995 c-12 -13 -5 -29 15 -32 13 -3 17 33 5 40 -5 3 -13 -1 -20
-8z"/>
<path d="M4260 2169 c0 -6 -4 -8 -9 -5 -4 3 -16 -3 -26 -14 -13 -15 -14 -20
-5 -20 8 0 34 -17 59 -38 70 -58 75 -60 67 -26 -13 52 -86 140 -86 103z"/>
<path d="M3547 1722 c-16 -17 -15 -20 13 -47 33 -31 36 -45 18 -63 -7 -7 -13
-26 -14 -41 l-2 -29 39 21 c21 11 57 38 80 59 22 21 45 35 51 32 15 -9 -8 30
-26 45 -10 8 -16 9 -21 1 -10 -16 -32 -12 -75 15 -47 30 -43 29 -63 7z"/>
<path d="M3904 1275 c11 -8 22 -12 25 -9 6 6 -19 24 -34 24 -5 -1 -1 -7 9 -15z"/>
<path d="M3394 1145 c-9 -21 -2 -26 13 -10 8 9 9 16 3 20 -6 3 -13 -1 -16 -10z"/>
<path d="M3549 1014 c-21 -25 19 -45 51 -24 13 8 12 11 -5 24 -25 19 -30 19
-46 0z"/>
<path d="M5672 1380 c2 -9 -4 -14 -14 -14 -21 2 -23 -7 -7 -23 8 -8 9 -32 3
-75 -6 -50 -9 -58 -15 -38 l-7 25 -1 -24 c-1 -13 6 -29 14 -35 9 -6 17 -24 18
-41 1 -16 10 -37 20 -47 23 -24 30 -23 17 2 -7 14 -7 20 0 20 6 0 10 36 10 96
0 87 -2 96 -19 101 -17 4 -18 8 -8 24 9 14 9 21 -1 31 -11 11 -13 10 -10 -2z
m25 -92 c-3 -8 -6 -5 -6 6 -1 11 2 17 5 13 3 -3 4 -12 1 -19z m0 -75 c-3 -10
-5 -4 -5 12 0 17 2 24 5 18 2 -7 2 -21 0 -30z m-30 -5 c-3 -8 -6 -5 -6 6 -1
11 2 17 5 13 3 -3 4 -12 1 -19z"/>
<path d="M5636 1331 c-4 -5 -2 -20 3 -33 9 -21 10 -21 10 10 1 32 -3 39 -13
23z"/>
<path d="M3840 523 c0 -6 -3 -20 -6 -30 -7 -17 -6 -17 12 -1 14 14 16 21 6 30
-8 8 -12 9 -12 1z"/>
<path d="M4255 422 c-16 -2 -38 -11 -47 -19 -20 -17 -24 -43 -8 -43 6 0 10 -7
10 -15 0 -10 10 -15 30 -15 23 0 33 7 45 30 16 31 19 57 8 62 -5 2 -21 2 -38
0z"/>
<path d="M4263 303 c-21 -8 -15 -18 12 -18 14 0 25 6 25 13 0 12 -15 15 -37 5z"/>
<path d="M1901 331 c-44 -47 -58 -88 -40 -120 12 -21 23 -26 61 -29 73 -4 91
43 49 126 -28 55 -37 58 -70 23z"/>
<path d="M3795 130 c-3 -5 -1 -10 4 -10 6 0 11 5 11 10 0 6 -2 10 -4 10 -3 0
-8 -4 -11 -10z"/>
<path d="M1738 1780 c-23 -21 -28 -30 -17 -30 9 0 22 7 29 15 19 23 45 18 141
-25 91 -41 109 -46 109 -32 0 10 -163 87 -202 96 -21 5 -35 0 -60 -24z"/>
<path d="M5998 1583 c7 -3 16 -2 19 1 4 3 -2 6 -13 5 -11 0 -14 -3 -6 -6z"/>
<path d="M2690 1423 c0 -16 52 -198 61 -213 15 -27 10 20 -11 95 -11 39 -23
82 -26 98 -6 24 -24 39 -24 20z"/>
<path d="M4625 1300 c3 -5 8 -10 11 -10 2 0 4 5 4 10 0 6 -5 10 -11 10 -5 0
-7 -4 -4 -10z"/>
<path d="M1550 1044 c-13 -13 -20 -24 -14 -24 12 0 50 38 43 44 -2 2 -15 -7
-29 -20z"/>
<path d="M1672 1027 c-18 -18 -32 -37 -32 -42 0 -6 3 -6 8 0 4 6 22 22 40 37
17 15 28 29 24 32 -5 3 -23 -9 -40 -27z"/>
<path d="M1732 1028 c-19 -19 -14 -30 8 -18 11 6 20 15 20 20 0 14 -14 12 -28
-2z"/>
<path d="M2423 980 c-53 -34 -78 -60 -58 -60 13 0 135 83 135 91 0 15 -13 10
-77 -31z"/>
<path d="M1760 983 c-12 -16 -30 -36 -38 -46 -8 -9 -13 -20 -9 -23 5 -6 78 69
85 87 7 19 -16 8 -38 -18z"/>
<path d="M1819 972 c-50 -55 -62 -72 -56 -78 6 -6 63 54 80 83 16 26 1 23 -24
-5z"/>
<path d="M4575 991 c-3 -5 -1 -12 5 -16 5 -3 10 1 10 9 0 18 -6 21 -15 7z"/>
<path d="M1831 923 c-23 -27 -41 -54 -41 -62 0 -8 2 -12 4 -10 41 46 94 119
87 119 -5 0 -28 -21 -50 -47z"/>
<path d="M1910 904 c-24 -33 -52 -67 -63 -76 -10 -10 -17 -25 -15 -35 2 -12
22 8 66 66 35 46 61 88 60 93 -2 6 -24 -16 -48 -48z"/>
<path d="M1877 918 c-29 -40 -40 -58 -33 -58 9 0 68 81 63 86 -3 3 -16 -10
-30 -28z"/>
<path d="M1951 900 c-71 -89 -102 -138 -92 -145 6 -3 15 5 22 17 7 13 37 54
66 91 30 37 53 73 51 79 -3 7 -24 -12 -47 -42z"/>
<path d="M1815 840 c-3 -5 -1 -10 4 -10 6 0 11 5 11 10 0 6 -2 10 -4 10 -3 0
-8 -4 -11 -10z"/>
<path d="M1950 818 l-23 -33 28 27 c16 15 26 30 23 33 -3 4 -16 -9 -28 -27z"/>
<path d="M4635 812 c-3 -11 -6 -36 -7 -57 -2 -51 21 -69 65 -50 54 23 49 69
-12 103 -38 22 -40 22 -46 4z"/>
<path d="M2709 788 c-16 -18 -29 -37 -29 -42 0 -6 3 -6 8 0 4 5 20 24 36 42
17 17 26 32 22 32 -4 0 -20 -15 -37 -32z"/>
<path d="M4993 305 c6 -32 19 -115 38 -232 6 -40 15 -73 20 -73 5 0 9 1 9 3 0
19 -62 322 -66 326 -4 3 -4 -7 -1 -24z"/>
<path d="M3960 144 c0 -8 5 -12 10 -9 6 3 10 10 10 16 0 5 -4 9 -10 9 -5 0
-10 -7 -10 -16z"/>
<path d="M4705 150 c-3 -5 -12 -7 -20 -3 -8 3 -15 1 -15 -4 0 -16 13 -23 24
-14 6 5 15 9 21 9 5 0 11 5 13 11 5 14 -15 15 -23 1z"/>
<path d="M4060 31 c0 -13 28 -33 41 -29 8 3 6 9 -5 21 -19 18 -36 22 -36 8z"/>
<path d="M6282 20 l-23 -19 28 3 c16 2 29 10 31 20 4 21 -8 20 -36 -4z"/>
<path d="M4130 10 c0 -5 5 -10 10 -10 6 0 10 5 10 10 0 6 -4 10 -10 10 -5 0
-10 -4 -10 -10z"/>
<path d="M4448 3 c7 -3 16 -2 19 1 4 3 -2 6 -13 5 -11 0 -14 -3 -6 -6z"/>
</g>
</svg>
